<?xml version="1.0" encoding="UTF-8"?>
<svg id="Capa_2" data-name="Capa 2" xmlns="http://www.w3.org/2000/svg" xmlns:xlink="http://www.w3.org/1999/xlink" viewBox="0 0 1981.1 1202.63">
  <defs>
    <style>
      .cls-1 {
        fill: none;
      }

      .cls-2 {
        opacity: .21;
      }

      .cls-3 {
        fill: #ec6f1e;
      }

      .cls-4 {
        clip-path: url(#clippath);
      }
    </style>
    <clipPath id="clippath">
      <rect class="cls-1" width="1981.1" height="1202.63" transform="translate(1981.1 1202.63) rotate(180)"/>
    </clipPath>
  </defs>
  <g id="CONTACTO">
    <g class="cls-2">
      <g class="cls-4">
        <g>
          <g>
            <path class="cls-3" d="M863.67,392.8c12.91,4.76,25.8,8.77,39.87,6.59,11.33-1.75,14.8-7.51,19.88-16.63,13.83-24.87,25.95-51.49,38.26-76.98,1.12-2.53-1.2-8.51-.85-9.98.49-2.03,6.03-1.66,6.04-10.15.03-19.72-25.43-39.85-44.44-40.78-5.28-.26-17.45,1.5-23.26,2.32-10.31,1.45-8.3,5.62-13.11,9.22-2.69,2.02-6.31,2.07-9.56,5.67-5.13,5.68-7.61,16.98-12.82,23.08v17.1c4.54-5.55,16.09-38.2,22.96-38.24,4.81,11.12,15.28,19.12,25.73,24.97,12.44,6.96,27.98,12.8,42.16,8.25-.16,2.15.26,4.46.06,6.59-.71,7.57-29.4,60.27-35.25,70.9-4.58,8.31-6.76,16.63-17.46,18-14.18,1.82-25.59-2.55-38.2-7.96v8.05ZM914.72,251.96c15.06-5.08,34.64,8.39,41.22,21.23,1.43,2.79,5.01,11.46,3.23,14.01-.78,1.12-12.51,4.83-14.48,4.93-12.41.62-45.35-14.73-50.8-26.2-5.71-12.04,8.26-17.24,14.74-11.51.7.62,5.83,6.84,5.95,7.29.74,2.78-3.87,4.89-.76,10.73,2.28,4.27,6.1,3.49,7.79,4.89.83.68.63,2.64,1.51,3.54,3.4,3.46,14.15,4.53,16.61-.78,1.76-3.79-3.72-12.99-7.72-14.51-8.57-3.27-9.35-2.43-15.78-10.61-.79-1.01-1.97-1.28-1.52-3.02ZM923.93,270.09c1.96-2.7,8.87,2.48,8.13,6-3.61,1.73-10.73-2.42-8.13-6Z"/>
            <path class="cls-3" d="M863.67,10.49c1.2,2.91,4.55,2.59,6.71,1.07,4.33-3.03,1.4-11.81,2.95-16.2.8-1.2,5.54-2.19,7.11-1.98,1.72.23,23.34,13.64,26.04,15.67,9.78,7.36,12.47,19.95,1.43,27.43-4.46,3.02-26.88,10.09-17.76,15.85,1.03.42,1.85-.02,2.8-.32,2.38-.77,20.55-10.74,22.26-12.36,11.48-10.88,7.19-26.14-4.25-35.03-3.79-2.95-28.59-18.81-31.94-19.85-7.46-2.32-7.59,4.14-10.75,4.63l-4.6-4.07V10.49Z"/>
            <path class="cls-3" d="M1451.68,605.08h7.15c-.11-1.92.48-3.43,1.57-4.99,3.43-4.89,22.44-12.53,28.82-13.85,12.53-2.59,10.37-2.96,20.98-8.5,6.73-3.52,13.65-6.77,20.58-9.9l-3.56,37.24h6.13c1.87-10.81,2.03-21.79,3.07-32.69.35-3.68,4.43-14.26-.53-14.65-2.56-.2-22.84,10.79-26.7,12.96-2.62,1.47-12.47,8.78-13.3,9.02-3.09.91-8.03-.12-11.8.45-9.65,1.45-31.99,13.52-32.4,24.91Z"/>
            <path class="cls-3" d="M1816.12,605.08h9.19c6.5-6.01,23.81-12.45,26.54,0h7.15c-.41-2.77-4.01-7.26-4.01-9.56,0-4.26,7.3-10.84,7.94-14.33.61-3.29-2.14-6.4-3.43-9.33-5.2-.01-6.29,16.67-10.72,19.62-11.42.4-20.79,2.81-29.74,9.93-1.34,1.07-3.07,1.4-2.92,3.66Z"/>
            <path class="cls-3" d="M863.67,553.77c4.92,3.69,10.33,10.32,13.09,15.77,1.89,3.74,2.72,9.9,4.46,12.71,1.08,1.75,3.06,1.84,4.04,4.16,1,2.38-.95,4.21.8,7.14,3.03,5.08,14.64,6.67,18.45,11.52h8.17c.04-2.17-1.3-2.73-2.71-3.87-6.49-5.19-15.59-8.18-22.29-13.25-2.18-16.68-8.77-33.25-24-42.24v8.05Z"/>
            <path class="cls-3" d="M863.67,67.84l6.12-3.01c-.8,4.29-1.75,7.79.02,12.07,4.88,3.27,9.25-17.98,9.09-20.7-.27-4.62-11.81-7.47-15.23-9.48v21.13Z"/>
            <path class="cls-3" d="M1150.53,605.08h17.35c-2.95-3.37-7.37-16.39-11.77-16.05-5.9,1.89-5.01,10.87-5.59,16.05Z"/>
            <path class="cls-3" d="M863.67,599.04c5.22-.46,9.66,1.52,12.25,6.04h6.13l-4.08-6.54-14.29-12.58v13.08Z"/>
            <path class="cls-3" d="M1503.74,605.08c.02-2.81.68-14.19-2.66-15.01l-3.51,1.6,1.06,13.41h5.1Z"/>
            <path class="cls-3" d="M1625.43,120.45c-56.41-4.83-95.12,46.88-81.37,99.31,14.75,56.27,83.71,74.06,127.12,35.72,51.93-45.86,23.18-129.13-45.75-135.03ZM1614.04,127.25c15.57-1.33,30.57,2.57,43.77,10.59,3.08,1.87,13.93,9.04,12.97,12.52-1.43,5.21-12.4,8.52-13.7,12.76-2.53,8.31,6.59,11.21,6.56,15.89-.03,4.2-9.72,5.29-8.63,13.82,1.48,11.58,15.97,10.78,21.32,15.29,2.58,2.17,3.61,7.31,6.06,10.11-.5,2.28-9.92,1.3-13.09,2.2-3.55,1.01-6.44,4.9-9.96,5.34-4.01.51-7.65-2.08-12.16-2.08-18.01,0-15.15,22.38-28.07,27.75-4.11,1.71-8.2,1.02-12.59,3.69-3.81,2.31-6.75,6.58-7.95,10.78-3.01,1.9-17.95-6.24-21.04-8.65-.82-.64-1.88.03-1.29-2.29,17.99-2.85,28.68-25.21,26.46-41.68-.91-6.73-6.67-12.9-5.99-20.08,1.11-11.81,21.46-9.59,21.46-27.29,0-9.95-8.75-15.43-9.29-19.17s6.43-13.95,5.19-19.51ZM1587.46,135.23c-.37-1.76.44-2.02,1.74-2.78,1.51-.88,15.04-4.82,15.6-4.24,1.89,6.68-3.16,14.58-1.83,20.4,1.13,4.97,10.11,8.61,9.92,17.21-.29,13.11-15.26,12.13-20.18,20.38-6.9,11.57,3.61,21.25,3.96,32.1.31,9.55-6.06,21.98-13.81,27.61-1.47,1.07-11.29,6.22-12.22,6.04-6.37-1.25,4.48-12.78,5.11-15.06,3.43-12.49-11.04-10.76-14.71-17.76-1.62-3.08-1.14-6.21-3.36-9.77-4.95-7.93-10.79-5.53-9.9-18.15,1.09-15.5,12.87-42.98,27.07-50.79,16.38-9.01,20.98,14.27,9.91,20.83-1.77,1.05-7.35,2.82-9.33,2.96-4.46.33-9.78-3.62-12.84-2.74-6.31,1.81,3.93,7.19,7.26,7.74,8.52,1.4,18.04-.57,23.17-7.88,5.81-8.26,5.33-22.66-5.54-26.11ZM1663.18,164.59c.87-1.44,12.16-5.65,12.58-10.22,11.52,12.54,16.97,31.89,15.7,48.66-.39,5.11-.94,15.41-7.01,15.72,4.82-21.51-21.48-13.87-22.34-29.51.55-1.59,4.5-2.77,5.86-5.33,5.18-9.72-7.47-14.87-4.79-19.32ZM1562.97,244.9c-7.89-11.42-14.28-23.03-15.32-37.22,9.15,3.04,5.66,12.18,11.69,18.15,7.77,7.68,15.9,1.78,5.72,18.46l-2.09.61ZM1604.81,268.04c1.46-11.13,11.83-8.71,18.65-12.3,9.4-4.94,12.92-22.86,18.36-25.16,6.52-2.76,10.75,1.74,16.47,1.21,5.65-.53,9.84-5.51,14.87-6.55,4.08-.84,8.29,0,12.3-1.45,2.03,2.25-11.29,19.54-13.76,22.14-17.1,17.96-42.04,26.99-66.88,22.11Z"/>
            <path class="cls-3" d="M1147.7,406.16c-84.48-9.4-121.67,93.25-55.07,138.78,52.8,36.1,124.5-5.24,121.24-68.17-1.8-34.83-30.65-66.66-66.17-70.61ZM1113.78,414.94c27.32-8.12,59.56.61,77.56,22.65,9.81,12.01,2.29,7.48-3.06,14.04-5.76,7.06-.26,9.51-.04,15.19.14,3.64-1.84,5.45-.27,10.33,1.52,4.75,9.8,7.85,5.01,13.32-3.09,3.53-14.04.29-16.51,9.05-3.2.44-6.78-6.07-14.76-3.65-1.94.59-3.5,2.86-5.78,3.35-6.41,1.4-14.26-1.34-17.9,7.51-3.62,8.8,3.15,16.58,3.18,23.38.01,3.04-3.15,7.02-3.71,10.3-.59,3.41-.11,6.91-.24,10.33-16.88.89-34.63-5.39-47.44-16.13-1.15-.96-7.52-7.02-7.65-7.58-.43-1.91,8.69-5.64,11.03-8.14,3.36-3.58,10.19-16.41,12.96-21.44,2.34-4.26,4.2-13.76,9.36-14.91,6.78-1.52,11.6,2.85,18.16,2.88,8.75.04,13.86-3.49,15.56-11.92.28-1.38-.88-2.82-.27-4.24.5-1.17,3.1-2.59,4.06-4.09,5.88-9.18,1.65-20.73-9.62-22.13-1.39-1.9,6.94-10.2,1.02-16.59-5.91-6.39-15.25-1.2-21.76-3.71-3.67-1.42-6.57-4.75-8.89-7.82ZM1076.21,519.35c-1.2-.69-6.04-11.74-6.8-13.91-3.65-10.46-4.63-22.61-3.6-33.65.27-2.88,2.77-14.03,4.15-16.03,4.44-6.47,23.25,3.02,29.02-9.63,4.02-8.82-1.33-14.82-.35-23.49,11.61-11.8,14.39,3.83,21.21,5.93,5.89,1.81,13.96-2.96,19,1.4,3.85,3.34-.66,6.67-1.35,9.84-2.79,12.67,11.63,5.68,12.08,15.89.3,6.81-4.54,7.67-5.74,11.49-1.23,3.92,1.02,9.94-4.47,11.69-9.96,3.16-18.85-6.1-28-1.44-4.63,2.36-4.88,8.22-7.32,11.9-1.57,2.36-4.64,4.12-6.42,6.75-4.8,7.11-5.58,20.16-15.45,22.99-1.59.46-4.58,1.06-5.96.26ZM1088.77,448.13c-4,.85-10.46-.62-14.8,0,.45-4.68,14.36-21.05,17.85-21.14,3.18,5.78,5.88,19.24-3.05,21.14ZM1191.57,455.37l8.97-4.22c17.93,37.54-2.08,85.06-42.85,96.58.08-2.35,2.03-3.4,2.79-5.79,1.04-3.28.86-7.23,2.06-10.04,1.53-3.61,8.58-6.4,10.89-10.39,3.46-5.98,3.16-20.73,11.98-23.41,4.79-1.45,11.52.14,13.67-6.64,2.9-9.17-4.76-11.15-5.64-15.67-.58-2.99.36-6.87-.01-10.05-.42-3.56-2.83-6.74-1.85-10.36ZM1143.39,550.76c.51-2.67-.69-5.76-.45-8.21.43-4.48,3.57-8.86,3.59-13.42.04-8.01-8.29-16.3-.6-22.65,2.09-1.72,15.5-5.69,18.51-5.98,11.26-1.09,6.13,5.81,4.73,11.78-.54,2.3.31,5.47-.77,7.29-1,1.67-8.12,4.53-10.57,8.7-4.19,7.13-1.41,21.88-14.44,22.49Z"/>
            <path class="cls-3" d="M1398.59-76.07c-2.1.19-5.82,2.26-6.66,4.09-1.37,2.99,2.07,4.31,1.14,8.01-1.03,4.1-16.18,28.2-19.57,33.12-13.08,19.04-32.48,19.87-47.21,40-22.9,31.3-35.99,77.02-54.34,111.44-7.72,22.71,21.6,37.14,39.34,42.83,9.2,2.95,30.63,9.2,35.23-2.02-19.26-.54-41.83-5.95-57.5-17.28-12.36-8.94-15.15-15.17-7.03-28.73.36-.6.03-1.97,1.74-1.27,1.25.51,8.85,7.64,11.84,9.47,6.55,4.01,19.2,11.67,25.3,3.97,8.74-18.38,18.51-36.47,26.86-55.03,1.68-3.74,8.82-18.74,8.95-21.39.44-9.41-13.34-11.55-19.82-16.54-1.44-1.11-9.79-9.09-10.29-10.06-1.09-2.15,7.72-14.16,9.78-16.54,11.47-13.23,28.04-15.59,39.17-28.8,4.51-5.36,24.76-38.39,25.17-43.66.27-3.43-.92-6.77-.06-10.55,4.02-2.17,23.84,9.1,27.48,12.67l-2.47,4.4c-9.36-9.35-19.51.93-6.66,6.55-6.89,13.45-15.84,28.73-19.09,43.55-2.69,12.26,1.76,16.94,2.76,27.91,2.32,25.35-5.84,32.88-13.43,54.14-.71,1.99-55.49,93.64-49.68,92.74,13.99.29,53.07-83.85,54.77-86.72,5.73-9.66,14.73-32.08,15.56-43.02,1.11-14.71-4.87-30.52-2.86-43.06.93-5.8,14.51-38.04,18.06-42.3,1.8-2.16,6.23-.74,6.92-5.38.15-1.02-1.02-2.66-.64-3.21,1.02-1.49,6.52-1.55,3.46-8.18-1.77-3.83-18.14-13.26-22.68-14.87-5.32-1.89-16.65-5.54-13.55,3.75ZM1321.03,30.62c1.57-.37,1.63.24,2.47,1.07,6.38,6.31,7.47,8.64,16.02,13.39,2.43,1.35,10.22,2.87,9.91,5.97-10.2,20.08-18.42,41.33-28.56,61.42-1.31,2.59-5.16,11.84-8.35,11.55-9.5-4.73-20.56-9.15-26.2-18.42l34.7-74.98Z"/>
            <path class="cls-3" d="M1350.46,332.59c.54.83.3,11.4-.07,13.2-1.24,5.97-8.92,13.92-11.51,19.85-4.37,9.99-4.36,25.89.46,35.76,1.2,2.47,4.73,4.97,4.95,6.12.28,1.4-1.8,4.54-1.89,6.93-.19,4.97,6.56,29.81,9.38,34.08.77,1.16,2.81,1.45,2.99,2.31.33,1.56-1.01,3.99-1.08,5.85-.31,8.07,2.38,20.31,5.33,27.93,1.01,2.62,5.55,8.86,5.65,9.4.42,2.19-1.07,9.34-.52,13.71,1.37,10.76,9.02,34.89,22.69,34.97,6.85.04,13.2-6.73,14.3-6.81.46-.03,5.51,3.08,8.44,3.52,6.85,1.02,11.82-.49,17.06-4.79,1.85-1.52,5.11-6.24,5.59-6.52,1.01-.58,5.73,1.3,7.71,1.31,12.92.02,21.33-11.09,20.84-23.27-.25-6.26-3.89-23.13-6.66-28.74-.96-1.94-4.05-4.7-4.32-5.84-.34-1.46,1.06-5.86.85-8.82-.49-6.96-3.85-22.09-7.3-28.03-.82-1.41-3.59-3.35-3.65-4.17-.03-.44,1.73-3.55,1.86-6.03.26-4.88-5.48-27.08-7.73-31.72-1.05-2.18-4.18-4.63-4.37-5.63-.25-1.27,1.06-3.81.88-5.92-1.04-12.26-8.04-27.13-17.43-35.23-7-6.04-25.51-12.64-26.37-22.3-.19-2.16,3.86-3.36,2.44-8.39-.61-2.16-4.79-12.73-5.83-14.43-6.8-11.12-34.27-2.29-40.11,5.45-4.48,5.93-1.66,19.08,3.04,24.04,1.37,1.45,4.14,1.81,4.4,2.2ZM1381.2,317.29c-5.54.13-24.44,8.68-28,8.16-2.88-.42-6.63-11.32-6.18-13.24.98-4.27,21.05-10.35,25.46-9.94,6.69.62,7.6,9.77,8.73,15.02ZM1354.71,331.43c9.4.82,17.56-4.52,26.53-6.04,2.58,16.41,21.8,18.42,31.63,30.71,4.58,5.73,10.5,19.92,10.17,27.07-.15,3.35-3.15,4.79.03,8.89.86,1.1,2.44,1.31,3.11,2.19,2.58,3.39,8.84,28.1,7.41,31.46-1.09,2.54-5.6,4.9-4.29,8.72.9,2.63,5.57,0,8.3,4.96,1.88,3.42,6.5,23.92,5.72,27.1-.67,2.77-8.05,7.92-2.84,10.3,1.58.72,3.71.25,5.08,1.03,1.96,1.11,6.1,17.35,6.69,20.57,3.37,18.49-1.81,26.84-22.05,21.6-3.46.93-6.17,10.87-13.97,12.43-8.6,1.72-12.91-5.16-16.04-4.86-4.54,2.05-8.18,9.08-14.1,7.95-9.52-1.81-16-29.55-14.99-37.52.36-2.87,3.26-4.38,1.02-7.89-.67-1.05-2.69-1.51-3.67-2.65-3.46-4.05-8.97-26.67-7.4-31.57.57-1.78,3.52-2.64,2.73-4.99-.59-3.41-4.14-4.18-5.86-6.41-2.26-2.95-7.61-23.35-7.84-27.49-.33-6.04,3.95-7.12,3.67-12.47-.25-.99-6.12-2.57-7.26-4.38-1.35-2.14-4.04-16.12-4.06-18.96-.1-15.68,17.46-28.23,15.28-42.15-.46-2.93-2.86-4.73-2.99-7.6Z"/>
            <path class="cls-3" d="M1943.73,54.76c-8.27-1.02-17.14-.19-23.51-6.51-3.55-3.52-4.53-12.94-6.93-18.32-12.13-27.2-45.74-41.56-73.97-29.28-1.65.72-3.72,1.04-3.8,3.26-.07,3.22,6.68,8.95,8.6,11.69,14.58,20.85,30.76,52.54,61.89,46.74,5.13-.96,11.98-7.12,13.72-7.2,2.25-.1,9.11,3.76,12.51,4.4,3.59.68,7.4-.39,10.9,1.13,2.08,1.47-2.44,20.13,6.7,19.22,1.96-10.66-3.42-20.71.96-31.76,1.73-4.37,9.29-6.76,13.36-9.97,30.43-24.05,8.22-74.07-10.39-99.44-1.71-2.33-9.19-12.78-11.39-12.6-2.81.23-10.03,11.69-11.72,14.64-18.64,32.5-27.05,70.47,3.87,98.41,5.84,5.27,12.15,5.08,9.2,15.59ZM1941.71-63.95l2.11.64c16.26,22.27,31.4,48.71,28.49,77.32-.82,8.07-5.68,14.51-11.7,19.65-1.77,1.51-7.24,5.68-9.2,6.03-1.81.33-1.54-.12-1.58-1.54,1.13-9.17.54-16.1,4.59-24.68,1.32-2.79,8.81-12.86,8.69-14.56-.07-1.04-1.73-1.68-3.05-1.02-2.55,1.27-6.46,11.06-9.17,9.57-1.07-10.3,1.2-31.88-4.64-40.18-.39-.55-2.02-2.41-2.49-2.06.08,1.68-1.59,3.17-1.75,4.65-.44,4.07,3.37,17.29,3.77,23.02.22,3.16-.11,6.38,0,9.54-2.01.52-1.97-.82-2.87-1.69-2.96-2.88-5.47-8.06-10.4-8.36,4.49,8.89,11.93,17.05,13.83,27.1,1.29,6.85-1.38,13.22-.56,20.17-1.77.45-2.04-.72-3.06-1.5-19.4-14.74-25.06-32.21-21.13-56.05,2.87-17.39,11.63-31.07,20.14-46.06ZM1844.71,5.47c31.51-10.95,60.95,9.84,68.39,40.23-2,2-26.42-18.26-31.64-17.09-2.22,2.23,7.44,9.27,9.27,10.47,6.35,4.15,13.59,6.15,20,10.47.97.65,2.76,1.06,2.36,2.69-.32,1.31-7.25,4.02-8.92,4.3-17.56,2.93-30.56-9.51-40.49-22l-18.99-29.06Z"/>
            <path class="cls-3" d="M983.36,99.24c-1.78-.45-3.43-.51-4.95.7-3.51,2.79-3.61,28.25-5.54,33.85,14.33,32.91,27.43,69.76,43.75,101.74,6.27,12.28,13.13,15.51,27.02,10.18,3.01-1.15,12.92-7.73,13.78-10.56,1.77-5.87-3.36-17.25-5.72-23.13-12.09-30.13-29.04-59.69-41.63-89.77-2.33-3.57-23.24-22.14-26.72-23.01ZM982.1,107.07c1.59-.28,2.36.15,3.62.96,5.68,3.66,11.51,11.1,17.33,15.12l-2.74,6.89c-4.44,1.17-8.06-2.96-11.13,1.66-.84,1.27-.87,3.39-1,3.51-.34.31-7.19-1.79-9.15.02l3.06-28.17ZM993.33,135.24l3.43,1.13,34.32,73.83c1.97,2.76,3.12,2.7,5.71.51l-33.27-75.91,2.06-4.59c2.47,1.56,3.7,5.14,4.95,7.69,11.15,22.74,20.51,46.42,31.67,69.16l4.21.62c2.56,2.36-10.64,10.86-12.89,11.95-3.41,1.65-13.81,5.04-17.08,4.05-3.14-.95.2-4.53-1.09-6.94l-34.26-74.98c-.79-2.8,5.54-1.67,6,.13l32.86,73.25c2.46,3.33,6.61,1.97,5.6-2.43l-32.8-71.44.58-6.02ZM1020.89,229.83c9.85-1.51,18.82-5.17,26.03-12.07,4.39,10.2,9.41,14.62-2.51,20.65-11.54,5.83-20,4.85-23.52-8.58Z"/>
            <path class="cls-3" d="M1650.73,61.8c2.62-5.93,0-11.81-.04-17.55-.06-10.46,1.58-20.74,1.09-31.21,35.56-42.11,16.99-85.53-23.79-114.43-4.26-3.02-15.05-10.43-19.4-12.08-2.65-1-5.67-1.36-6.65,1.94-.93,3.11-.74,11.06-1.55,15.58-5.87,32.72-20.78,64.97,8.48,91.88,11.65,10.72,19.57,10.08,31.36,16.38,14.38,7.69-1.95,41.59,6.85,48.58,1.17.93,2.19,1.13,3.65.92ZM1644.62,7.47c-15.23-3.81-30.37-12.13-39.02-25.42-15.41-23.67-1.46-52.87,2.15-77.83.47-3.26-1.01-7.17,1.65-9.41,23.9,13.58,52.97,38.79,54.66,67.85.9,15.4-4.19,31.72-13.82,43.8l-11.78-44.82,4.01-26.99c-.93-1.33-1.11-2.17-2.44-.62-2.14,2.5-3,9.42-4.5,12.67-.54,1.18.49,1.82-2.13,1.41-4.18-10.55-6.13-22.74-14.29-31.19-1.45,4.42,10.24,28.89,9.17,30.18-3.68-1.6-6.98-4.76-10.91-5.84-1.25-.34-3.14-.61-2.34,1.3.95,2.29,9.75,7.74,12.14,10.18,7.23,7.4,9.39,17.71,11.33,27.56l-19.39-12.57-6.62-1.52-.51,2c8.61,5.69,25.9,15.17,29.31,24.95,1.59,4.56,1.76,9.71,3.34,14.3Z"/>
            <path class="cls-3" d="M1989.9,231.06c-1.19,1.17-7.53,22.48-8.68,26.15-4.53,14.48-19.96,60.23-17.85,72.47.86,5.02,3.3,9.14,8.99,7.34,3.69-1.16,8.33-9.29,10.58-12.72,14.82-22.57,26.35-48.3,41.32-70.94,4.13-4.4-2.48-10.92-2.6-12.98-.23-3.88,7.26-16.35,5.96-21.94,26.49-11.86,16.29-38.67,21.94-59.86,1.02-3.82,4.36-6.82,3.38-11.25-4.29-.7-6.97,1.42-10.34,3.39-19.53,11.44-44.23,29.39-39.45,55.23.67,3.61,4.48,6.16,3.44,9.81-.24.83-7.54,12.7-8.18,13.15-2.36,1.66-6.72.4-8.53,2.16ZM2043.77,158.39c-3.12,13.35-1.44,29.9-7.61,42.29-9.12,18.32-30.35,12.72-26.63-8.14,2.17-12.21,11.73-19.66,21.27-26.33,1.35-.94,12.37-8.5,12.98-7.82ZM2013.23,216.79l7.14,2.56c-.04,2.8-4.09,18.12-5.76,18.49l-9.68-4.55,8.3-16.5ZM1996.12,236.98c5.53,4.09,15.19,5.64,20.48,9.06.87.56,1.93,1.02,1.55,2.24-14.66,22.54-25.06,47.58-38.51,70.76-2.56,4.41-4.82,9.11-8.85,12.38-3.51.07-.53-15.59,0-18.09,5.16-24.35,16.82-49.64,22.9-74.01l2.44-2.33Z"/>
            <path class="cls-3" d="M2031.43,488.28c3.8-5.55-17.61-18.14-21.36-21.52-5.28-4.77-7.2-7.48-7.17-15.06.04-9.92,4.02-22.73,4.12-33.25.01-1.32-.67-4.84-1.69-5.62-.84-.36-1.8-.8-2.74-.67-4.8.64-22.84,23.28-29.74,25.9-3.13.08-28.13-19.68-34.33-22.51-2.33-1.07-5.19-2.73-7.12-.2-4.01,5.24,5.08,33.93,7,41.22-1.09,5.48-24.38,19.19-27.38,24.22-5.23,8.76,16.8,9.54,22,9.67,4.62.11,9.96-2.69,13.75.48,5,5.49,19.91,43.49,23.5,45.26,1.11.54,2.22.77,3.42.38,4.02-1.29,14.95-36.96,19.52-42.19,4.56-3.61,36.74-3.92,38.23-6.09ZM1937.61,423.99c1.59-1.8,30.26,22.22,35.21,22.23,5.4,0,19.87-16.83,25-20.22,1.06,10.94-3.33,25.68-.53,36.24,1.62,6.08,17.13,14.77,21.97,19.6.43,2.31-1.03,1.36-2.54,1.49-8.62.7-24.09.82-30.13,7.54-6.52,7.26-8.71,26.73-14.29,35.72l-20.88-40.27c-5.12-4.43-23.17-3.52-30.14-4-.67-2.35.63-1.7,1.3-2.29,5.02-4.41,21.64-16.27,22.8-21.81,1.3-6.21-10.41-31.24-7.77-34.24Z"/>
            <path class="cls-3" d="M1744.15,446.12c.31,0,1.01-.7,1.64-.51,3.64.44,18.2,28,21.5,32.52,5.18,1.41,5.55-3,6.5-6.82,1.23-4.92,3.69-30.1,5.57-31.74l45.82-7.65c.6-2.44.28-4.08-1.37-5.96-4.9-5.55-23.33-10.52-27.9-18.79-1.85-6.06,4.8-27.87,4.71-36.05-.01-1.17-.5-2.3-.96-3.35l-5.56.8-28.52,21.21c-2.5,0-19.12-16.61-21.96-19.61-1.55-1.63-11.72-17.31-14.14-9.93-1.25,3.81,2.69,8.04,5.01,10.88,3.26,3.99,24.86,24.09,28.5,25.25,2.44.78,3.59.52,5.89-.35,3.28-1.24,22.87-18.49,23.76-17.32.91,8.07-5.84,24.34-3.62,31.24,1.58,4.92,18,12.13,22.76,15.75.86.65,1.86,0,1.28,2.3-8.91,2.03-30.2,1.7-37.28,6.02-6.79,4.14-5.89,23.95-8.67,31.2l-17.63-24.36c-11.13-3.65-23.89-.05-35.44.21,1.37-10.27,25.54-20.98,27.35-28.89.93-4.05-4.98-26.13-7.49-29.42-2.37-3.1-4.58-2.54-4.59,1.41-.01,6.4,6.21,22.4,4.74,27.74-1.89,6.85-31.7,20.86-27.16,34.19,12.4.23,24.86-.31,37.26,0Z"/>
            <path class="cls-3" d="M1226.8,285.45c2.45,1.94,9.32,15.79,11.01,15.77,7.81-6.43-5.94-15.85-6.42-20.76-.17-1.77,3.14-6.42,3.92-8.85,7.42-22.97-11.91-50.13-30.36-62.75-12.4-8.48-37.56-18.71-52.36-20.9-7.2-1.07-6.38,3.53-6.14,9.14,1.5,34.19,22.22,87.74,63.84,88.07,4.52.04,12.36-3,16.5.27ZM1152.58,195.61c28,5.71,60.96,19.97,72.66,47.6,4.47,10.56,6.82,21.82,2.87,32.88-13.99-9.96-12.59-26.27-20.4-39.75-4.15-2.87.05,12.75.26,13.85.25,1.32,1.92,1.97-.76,1.76-5.67-5.81-11.77-11.23-17.38-17.08-4.1-4.28-6.06-11.32-13.76-10.07l1.55,6.01c3.9,4.09,20.22,16.65,21.92,20.66.91,2.15-1.32,1.34-2.28,1.25-4.81-.45-9.7-1.37-14.57-.76-1.42.18-2.93.52-1.51,2,6.52,3.95,18.5,2.77,24.44,5.6,1.42.68,7.75,7.35,9.21,9.03.95,1.09,8.13,9.72,7.17,10.53-47.51,3.81-67.28-44.36-69.41-83.5Z"/>
            <path class="cls-3" d="M1134.45-50.62c-58.47-7.39-77.72,71.08-23.99,92.06,68.69,26.83,92.84-83.36,23.99-92.06ZM1134.47-43.6c53.71,7.61,39.1,94.47-17.59,78.71-49.61-13.79-36.26-86.34,17.59-78.71Z"/>
            <path class="cls-3" d="M1568.05,405.87c-13.26-4.46-34.62-.05-15.82,14.09,7.51,5.65,15.46,6.42,24.42,8.13,3.5,2.34,2.51,14.57,8.21,14.96,8.52.58-.71-15.07-.2-19.44.37-3.2,7.85-11.18,8.81-19.35.78-6.62.75-21.77-9.46-16.36l-9.31,10.92c-1.97-4.46-7.24-10.34-8.9-14.37-1.96-4.73-1.99-10.2-4.71-15.48-4.24-8.22-14.65-17.77-23.29-21.31-13.6-5.57-13.4,1.37-10.07,11.94,3.13,9.91,9.67,19.16,17.96,25.56,9.06,7,20.02,7.07,22.37,20.7ZM1534.38,354.57c14.97,4.25,18.47,17.54,23.46,30.18-12.19-5.55-20.75-17.32-23.46-30.18ZM1584.41,395.83l2.03.5c-.13,3.61.31,7.23-.25,10.82-.22,1.43-3.52,11.96-5.87,9.8-3.93-9.25-.33-13.33,4.1-21.12ZM1552.75,410.92c8.15-2.42,21.69-.06,22.45,10.04-8.1.14-17.51-3.58-22.45-10.04Z"/>
            <path class="cls-3" d="M1716.25-30.51c-20.82-.43-42.82,16.2-43.86,37.49-.13,2.73,1.53,5.01.55,8.81-1.52,5.91-11.4,13.26-12.62,17.83-.49,1.85.19,2.37,1.63,3.58,9.35-.59,10-16.91,17.31-19.21,5.41-1.7,8.15,1.13,12.81,1.57,30.91,2.87,39.88-15.69,59.22-34.23,2.47-5.24-6.01-8.5-10.03-10.22-7.02-3.01-17.39-5.45-25.02-5.61ZM1678.32,9.48c.64-33.06,40.29-41.01,64.3-24.64-8.1,4.7-11.31,14.22-18.36,20.13-11.05,9.26-27.27,10.97-40.84,7.52l11.99-10.82,17.61.76-8.16-4.51,13.25-7.05c-2.03-3.92-11,1.7-12.22.5l1.01-7.03c-4.64.75-5.38,6.92-8.68,10.05-5.1,4.82-15.09,8.56-19.89,15.1Z"/>
            <path class="cls-3" d="M1506.78,42.67c-4.57-1.32-7.75-5.48-13-4.36-11.77,2.52-8.74,16.74-3.3,23.99,2.04,2.72,13.01,13.03,15.76,14.64,1.36.8,2.44,1.33,4.09.99,2.72-.39,11.83-14,13.37-17.1,3.1-6.26,5.72-15.37,1.5-21.68-5.43-8.1-15.51-4.48-18.41,3.51ZM1518.38,40.76c8.8,2.47-3.58,24-7.47,27.6-1.11,1.03-1.61,1.84-3.4,1.38-4.19-2.57-23.38-21.66-13.29-24.91,7.66-2.47,9.6,9.46,12.99,8.89,2.78-.47,4.23-14.9,11.17-12.95Z"/>
            <path class="cls-3" d="M1654.09,530.86c-11.7-2.39-16.06,4.42-14.32,15.12.65,4,6.37,19.22,10.52,19.87,9.31,1.45,38.32-16.7,24.93-26.65-4.34-3.22-8.59-1.62-12.53-2.74-2.05-.58-4.5-4.77-8.6-5.6ZM1653.08,536.88c3.65.83,5.23,4.93,7.57,5.62,3.31.97,7.23-.63,10.57.65,7.37,5.09-14.67,16.2-18.98,16.43-4.38-5.86-13.42-25.93.85-22.69Z"/>
            <path class="cls-3" d="M1809.98,265.02c-17.39-6.19-26.94,5.17-10.54,16.94,3.47,2.49,17.9,10.19,21.54,8.57,2.87-1.28,6.68-18.34,6.31-21.87-1.25-11.9-14.76-17.83-17.31-3.64ZM1815.35,263.27c4.53-3.37,6.68,2.48,6.79,6.38.07,2.19-3.35,14.35-4.58,14.56-7.86-2.78-16.57-6.07-20.81-13.65,9.89-6.65,16.53,10.88,18.6-7.28Z"/>
            <path class="cls-3" d="M1846.01,149.56c-17.34-3.51-24.46,21.83-9.18,29.16,21.55,10.34,32.27-24.48,9.18-29.16ZM1846.02,155.58c12.09,2.69,7.17,24.11-6.69,17.66-9.99-4.65-5.6-20.4,6.69-17.66Z"/>
            <path class="cls-3" d="M940.49,494.58c-3.02-.32-3.99,1.3-2.8,3.85.38.81,11.62,10.73,13.3,12.05,4.8,3.73,11.08,9.59,17.4,6.12,4.72-6.4-22.53-21.45-27.9-22.02Z"/>
            <path class="cls-3" d="M1034.47,378.4c9.97,9.12,25.35-7.32,12.45-15.79-10.63-6.99-20.99,7.98-12.45,15.79ZM1042.62,365.78c3.83.88,5.31,6.39,1.3,8.97-7.97,5.11-9.5-10.84-1.3-8.97Z"/>
            <path class="cls-3" d="M1381.24,253.46c.17.61,2.48,2.67,3.47,2.47,4.55-.9,5.49-24.14,4.24-28.18-1.74-5.63-7.71-3.85-7.71-1.46,0,5.75-1.16,23.11,0,27.16Z"/>
            <path class="cls-3" d="M1156.66,52.75c-1.03,10.49,3.04,22.56,13.25,27.15,4.61-3.24-5.19-27.41-13.25-27.15Z"/>
            <path class="cls-3" d="M1114.8,56.77c.82,5.08-4.97,23.24,0,25.67,6.99,3.41,6.86-6.05,7.2-11.03.45-6.68,2.29-17.1-7.19-14.63Z"/>
            <path class="cls-3" d="M1193.41,3.44l-.05,7.57c7.83,1.32,15.45,4.23,23.52,3.49l.05-7.55-23.51-3.51Z"/>
            <path class="cls-3" d="M1399.62,267.04c1.89.15,3.01.24,4.57-1.02.69-.56,8.91-13.95,9.26-15.03,1.58-4.84-2.76-10.26-6.18-7.09-1.96,1.81-9.54,21.3-7.65,23.14Z"/>
            <path class="cls-3" d="M972.12,480.59c-3.16-.49-19.73-1.73-18.61,3.23,3.2,3.43,27.53,7.45,26.45,1.18-1.7-3.01-4.56-3.9-7.84-4.41Z"/>
            <path class="cls-3" d="M1066.83,60.79c2.83,2.57,21.81-14.09,19.39-20.11-9.95.52-17.41,11.16-19.39,20.11Z"/>
            <path class="cls-3" d="M1430.54,271.28c-5.13-1.53-17.63,1.47-19.63,7.2.85,4.89,16.26-.36,19.34-1.88,3.35-1.66,4.5-4.07.3-5.32Z"/>
            <path class="cls-3" d="M931.06,519.57c-1.94,3.73-1.94,19.56,4.39,18,6.8-1.68-1.13-20.35-4.39-18Z"/>
            <path class="cls-3" d="M897.69,263.72c.4.47,3.16,2.3,3.77,1.86,1.38-1.98,4.39-5.26,2.62-7.66-2.58-2.15-7.42-.93-7.68,2.56.09,1.23.49,2.29,1.29,3.24Z"/>
            <path class="cls-3" d="M1362.93,402.94l.07,2.82c8.83,4.58,18.13,2.61,27.46.66,4.33-.91,22.56-4.9,21.4-11.08-.82-4.41-15.51,1.66-18.17,2.19-10.32,2.09-20.82,2.22-30.77,5.4Z"/>
            <path class="cls-3" d="M1383.35,489.32c8.83,4.56,37.93-.44,45.23-6.11,2.57-2,4.3-6.76.23-6.86-4.15-.11-15.65,4.97-21.65,5.88-2.9.44-28.61.14-23.81,7.1Z"/>
            <path class="cls-3" d="M1421.06,436.07c-7.98-.28-15.31,3.67-23.09,4.91-5.73.91-20.34.38-23.88,3.63-2.72,2.5.11,4.72,2.79,5.32,7.86,1.77,32.37-2.8,39.62-6.79,3.1-1.71,5.24-3.15,4.56-7.07Z"/>
          </g>
          <g>
            <path class="cls-3" d="M863.67-37.8c-6.7-4.86-14.97-12.25-23.9-11.97-4.48.14-26.55,10.4-30.15,13.55-13.02,11.4-1.81,38.21-.07,52.75-.68.65-19.81-9.89-13.32.56,1.62,2.6,19.55,14.79,21.85,14.37,3.36-3.53,16.34-18.53,15.8-22.23-.39-2.67-2.12-4.28-4.98-3.36-4.34,1.4-6.12,12.01-12.2,12.67l-6.95-39.75c.51-5.12,2.33-8.47,6.6-11.39,3.49-2.38,20.76-10.37,24.29-10.28,8.63.22,16.2,9.93,23.01,14.14v-9.05Z"/>
            <path class="cls-3" d="M171.54,605.08h7.15c-.11-1.92.48-3.43,1.57-4.99,3.43-4.89,22.44-12.53,28.82-13.85,12.53-2.59,10.37-2.96,20.98-8.5,6.73-3.52,13.65-6.77,20.58-9.9l-3.56,37.24h6.13c1.87-10.81,2.03-21.79,3.07-32.69.35-3.68,4.43-14.26-.53-14.65-2.56-.2-22.84,10.79-26.7,12.96-2.62,1.47-12.47,8.78-13.3,9.02-3.09.91-8.03-.12-11.8.45-9.65,1.45-31.99,13.52-32.4,24.91Z"/>
            <path class="cls-3" d="M863.67,544.72c-19.97-10.37-43.15-11.42-65.34-11.07-.71,5.29,1.46,9.75,3.05,14.61,6.68,20.43,16.43,43.21,33.71,56.82h8.17c-7.84-7.36-14.94-13.13-20.59-22.46-2.84-4.7-19.45-40.7-17.18-42.93,20.06-.28,41.08,2.07,58.19,13.07v-8.05Z"/>
            <path class="cls-3" d="M863.67,391.79v-7.04c-9.58-4.77-26.15-15.51-25.59-27.65.13-2.84,9.46-21.72,11.44-26.03,4.3-9.35,8.98-18.9,14.15-27.81v-16.1c-2.78,3.83-4.95,8.46-7,12.72-7.13,14.82-17.05,33.09-22.79,47.97-1.07,2.77-2.88,7.41-2.88,10.24,0,14.71,19.4,29.8,32.66,33.7Z"/>
            <path class="cls-3" d="M863.67,62.81c-12.32,3.6-26.06,17.84-38.81,7.57-9.36-7.54-6.57-19.38-9.22-29.67l-4.8,1.22c-1.88,1.82.25,16.71,1.05,20.09,1.9,8.03,6.41,14.02,14.34,17.05,14.76,5.64,24.59-3.73,37.44-9.23v-7.04Z"/>
            <path class="cls-3" d="M535.98,605.08h9.19c6.5-6.01,23.81-12.45,26.54,0h7.15c-.41-2.77-4.01-7.26-4.01-9.56,0-4.26,7.3-10.84,7.94-14.33.61-3.29-2.14-6.4-3.43-9.33-5.2-.01-6.29,16.67-10.72,19.62-11.42.4-20.79,2.81-29.74,9.93-1.34,1.07-3.07,1.4-2.92,3.66Z"/>
            <path class="cls-3" d="M863.67,582.95c-11.64-5.06-12.8-15.75-17.49-26.02l-2.94.38,3.07,10.54c-6.22-1.58-10.57-7.91-16.61-10.28-1.44-.56-4.31-2.01-3.82.74l37.79,30.67v-6.04Z"/>
            <path class="cls-3" d="M223.6,605.08c.02-2.81.68-14.19-2.66-15.01l-3.51,1.6,1.06,13.41h5.1Z"/>
            <path class="cls-3" d="M863.67,594.01c-4.72-1.91-10.54-1.24-15.31.01,3.04,4.2,10.55,3.83,15.31,4.01v-4.02Z"/>
            <path class="cls-3" d="M345.29,120.45c-56.41-4.83-95.12,46.88-81.37,99.31,14.75,56.27,83.71,74.06,127.12,35.72,51.93-45.86,23.18-129.13-45.75-135.03ZM333.9,127.25c15.57-1.33,30.57,2.57,43.77,10.59,3.08,1.87,13.93,9.04,12.97,12.52-1.43,5.21-12.4,8.52-13.7,12.76-2.53,8.31,6.59,11.21,6.56,15.89-.03,4.2-9.72,5.29-8.63,13.82,1.48,11.58,15.97,10.78,21.32,15.29,2.58,2.17,3.61,7.31,6.06,10.11-.5,2.28-9.92,1.3-13.09,2.2-3.55,1.01-6.44,4.9-9.96,5.34-4.01.51-7.65-2.08-12.16-2.08-18.01,0-15.15,22.38-28.07,27.75-4.11,1.71-8.2,1.02-12.59,3.69-3.81,2.31-6.75,6.58-7.95,10.78-3.01,1.9-17.95-6.24-21.04-8.65-.82-.64-1.88.03-1.29-2.29,17.99-2.85,28.68-25.21,26.46-41.68-.91-6.73-6.67-12.9-5.99-20.08,1.11-11.81,21.46-9.59,21.46-27.29,0-9.95-8.75-15.43-9.29-19.17-.57-3.92,6.43-13.95,5.19-19.51ZM307.32,135.23c-.37-1.76.44-2.02,1.74-2.78,1.51-.88,15.04-4.82,15.6-4.24,1.89,6.68-3.16,14.58-1.83,20.4,1.13,4.97,10.11,8.61,9.92,17.21-.29,13.11-15.26,12.13-20.18,20.38-6.9,11.57,3.61,21.25,3.96,32.1.31,9.55-6.06,21.98-13.81,27.61-1.47,1.07-11.29,6.22-12.22,6.04-6.37-1.25,4.48-12.78,5.11-15.06,3.43-12.49-11.04-10.76-14.71-17.76-1.62-3.08-1.14-6.21-3.36-9.77-4.95-7.93-10.79-5.53-9.9-18.15,1.09-15.5,12.87-42.98,27.07-50.79,16.38-9.01,20.98,14.27,9.91,20.83-1.77,1.05-7.35,2.82-9.33,2.96-4.46.33-9.78-3.62-12.84-2.74-6.31,1.81,3.93,7.19,7.26,7.74,8.52,1.4,18.04-.57,23.17-7.88,5.81-8.26,5.33-22.66-5.54-26.11ZM383.04,164.59c.87-1.44,12.16-5.65,12.58-10.22,11.52,12.54,16.97,31.89,15.7,48.66-.39,5.11-.94,15.41-7.01,15.72,4.82-21.51-21.48-13.87-22.34-29.51.55-1.59,4.5-2.77,5.86-5.33,5.18-9.72-7.47-14.87-4.79-19.32ZM282.83,244.9c-7.89-11.42-14.28-23.03-15.32-37.22,9.15,3.04,5.66,12.18,11.69,18.15,7.77,7.68,15.9,1.78,5.72,18.46l-2.09.61ZM324.67,268.04c1.46-11.13,11.83-8.71,18.65-12.3,9.4-4.94,12.92-22.86,18.36-25.16,6.52-2.76,10.75,1.74,16.47,1.21,5.65-.53,9.84-5.51,14.87-6.55,4.08-.84,8.29,0,12.3-1.45,2.03,2.25-11.29,19.54-13.76,22.14-17.1,17.96-42.04,26.99-66.88,22.11Z"/>
            <path class="cls-3" d="M118.45-76.07c-2.1.19-5.82,2.26-6.66,4.09-1.37,2.99,2.07,4.31,1.14,8.01-1.03,4.1-16.18,28.2-19.57,33.12C80.28-11.81,60.88-10.97,46.16,9.16,23.25,40.46,10.16,86.18-8.18,120.6c-7.72,22.71,21.6,37.14,39.34,42.83,9.2,2.95,30.63,9.2,35.23-2.02-19.26-.54-41.83-5.95-57.5-17.28-12.36-8.94-15.15-15.17-7.03-28.73.36-.6.03-1.97,1.74-1.27,1.25.51,8.85,7.64,11.84,9.47,6.55,4.01,19.2,11.67,25.3,3.97,8.74-18.38,18.51-36.47,26.86-55.03,1.68-3.74,8.82-18.74,8.95-21.39.44-9.41-13.34-11.55-19.82-16.54-1.44-1.11-9.79-9.09-10.29-10.06-1.09-2.15,7.72-14.16,9.78-16.54,11.47-13.23,28.04-15.59,39.17-28.8,4.51-5.36,24.76-38.39,25.17-43.66.27-3.43-.92-6.77-.06-10.55,4.02-2.17,23.84,9.1,27.48,12.67l-2.47,4.4c-9.36-9.35-19.51.93-6.66,6.55-6.89,13.45-15.84,28.73-19.09,43.55-2.69,12.26,1.76,16.94,2.76,27.91,2.32,25.35-5.84,32.88-13.43,54.14-.71,1.99-55.49,93.64-49.68,92.74,13.99.29,53.07-83.85,54.77-86.72,5.73-9.66,14.73-32.08,15.56-43.02,1.11-14.71-4.87-30.52-2.86-43.06.93-5.8,14.51-38.04,18.06-42.3,1.8-2.16,6.23-.74,6.92-5.38.15-1.02-1.02-2.66-.64-3.21,1.02-1.49,6.52-1.55,3.46-8.18-1.77-3.83-18.14-13.26-22.68-14.87-5.32-1.89-16.65-5.54-13.55,3.75ZM40.89,30.62c1.57-.37,1.63.24,2.47,1.07,6.38,6.31,7.47,8.64,16.02,13.39,2.43,1.35,10.22,2.87,9.91,5.97-10.2,20.08-18.42,41.33-28.56,61.42-1.31,2.59-5.16,11.84-8.35,11.55-9.5-4.73-20.56-9.15-26.2-18.42L40.89,30.62Z"/>
            <path class="cls-3" d="M70.32,332.59c.54.83.3,11.4-.07,13.2-1.24,5.97-8.92,13.92-11.51,19.85-4.37,9.99-4.36,25.89.46,35.76,1.2,2.47,4.73,4.97,4.95,6.12.28,1.4-1.8,4.54-1.89,6.93-.19,4.97,6.56,29.81,9.38,34.08.77,1.16,2.81,1.45,2.99,2.31.33,1.56-1.01,3.99-1.08,5.85-.31,8.07,2.38,20.31,5.33,27.93,1.01,2.62,5.55,8.86,5.65,9.4.42,2.19-1.07,9.34-.52,13.71,1.37,10.76,9.02,34.89,22.69,34.97,6.85.04,13.2-6.73,14.3-6.81.46-.03,5.51,3.08,8.44,3.52,6.85,1.02,11.82-.49,17.06-4.79,1.85-1.52,5.11-6.24,5.59-6.52,1.01-.58,5.73,1.3,7.71,1.31,12.92.02,21.33-11.09,20.84-23.27-.25-6.26-3.89-23.13-6.66-28.74-.96-1.94-4.05-4.7-4.32-5.84-.34-1.46,1.06-5.86.85-8.82-.49-6.96-3.85-22.09-7.3-28.03-.82-1.41-3.59-3.35-3.65-4.17-.03-.44,1.73-3.55,1.86-6.03.26-4.88-5.48-27.08-7.73-31.72-1.05-2.18-4.18-4.63-4.37-5.63-.25-1.27,1.06-3.81.88-5.92-1.04-12.26-8.04-27.13-17.43-35.23-7-6.04-25.51-12.64-26.37-22.3-.19-2.16,3.86-3.36,2.44-8.39-.61-2.16-4.79-12.73-5.83-14.43-6.8-11.12-34.27-2.29-40.11,5.45-4.48,5.93-1.66,19.08,3.04,24.04,1.37,1.45,4.14,1.81,4.4,2.2ZM101.06,317.29c-5.54.13-24.44,8.68-28,8.16-2.88-.42-6.63-11.32-6.18-13.24.98-4.27,21.05-10.35,25.46-9.94,6.69.62,7.6,9.77,8.73,15.02ZM74.57,331.43c9.4.82,17.56-4.52,26.53-6.04,2.58,16.41,21.8,18.42,31.63,30.71,4.58,5.73,10.5,19.92,10.17,27.07-.15,3.35-3.15,4.79.03,8.89.86,1.1,2.44,1.31,3.11,2.19,2.58,3.39,8.84,28.1,7.41,31.46-1.09,2.54-5.6,4.9-4.29,8.72.9,2.63,5.57,0,8.3,4.96,1.88,3.42,6.5,23.92,5.72,27.1-.67,2.77-8.05,7.92-2.84,10.3,1.58.72,3.71.25,5.08,1.03,1.96,1.11,6.1,17.35,6.69,20.57,3.37,18.49-1.81,26.84-22.05,21.6-3.46.93-6.17,10.87-13.97,12.43-8.6,1.72-12.91-5.16-16.04-4.86-4.54,2.05-8.18,9.08-14.1,7.95-9.52-1.81-16-29.55-14.99-37.52.36-2.87,3.26-4.38,1.02-7.89-.67-1.05-2.69-1.51-3.67-2.65-3.46-4.05-8.97-26.67-7.4-31.57.57-1.78,3.52-2.64,2.73-4.99-.59-3.41-4.14-4.18-5.86-6.41-2.26-2.95-7.61-23.35-7.84-27.49-.33-6.04,3.95-7.12,3.67-12.47-.25-.99-6.12-2.57-7.26-4.38-1.35-2.14-4.04-16.12-4.06-18.96-.1-15.68,17.46-28.23,15.28-42.15-.46-2.93-2.86-4.73-2.99-7.6Z"/>
            <path class="cls-3" d="M663.59,54.76c-8.27-1.02-17.14-.19-23.51-6.51-3.55-3.52-4.53-12.94-6.93-18.32-12.13-27.2-45.74-41.56-73.97-29.28-1.65.72-3.72,1.04-3.8,3.26-.07,3.22,6.68,8.95,8.6,11.69,14.58,20.85,30.76,52.54,61.89,46.74,5.13-.96,11.98-7.12,13.72-7.2,2.25-.1,9.11,3.76,12.51,4.4,3.59.68,7.4-.39,10.9,1.13,2.08,1.47-2.44,20.13,6.7,19.22,1.96-10.66-3.42-20.71.96-31.76,1.73-4.37,9.29-6.76,13.36-9.97,30.43-24.05,8.22-74.07-10.39-99.44-1.71-2.33-9.19-12.78-11.39-12.6-2.81.23-10.03,11.69-11.72,14.64-18.64,32.5-27.05,70.47,3.87,98.41,5.84,5.27,12.15,5.08,9.2,15.59ZM661.57-63.95l2.11.64c16.26,22.27,31.4,48.71,28.49,77.32-.82,8.07-5.68,14.51-11.7,19.65-1.77,1.51-7.24,5.68-9.2,6.03-1.81.33-1.54-.12-1.58-1.54,1.13-9.17.54-16.1,4.59-24.68,1.32-2.79,8.81-12.86,8.69-14.56-.07-1.04-1.73-1.68-3.05-1.02-2.55,1.27-6.46,11.06-9.17,9.57-1.07-10.3,1.2-31.88-4.64-40.18-.39-.55-2.02-2.41-2.49-2.06.08,1.68-1.59,3.17-1.75,4.65-.44,4.07,3.37,17.29,3.77,23.02.22,3.16-.11,6.38,0,9.54-2.01.52-1.97-.82-2.87-1.69-2.96-2.88-5.47-8.06-10.4-8.36,4.49,8.89,11.93,17.05,13.83,27.1,1.29,6.85-1.38,13.22-.56,20.17-1.77.45-2.04-.72-3.06-1.5-19.4-14.74-25.06-32.21-21.13-56.05,2.87-17.39,11.63-31.07,20.14-46.06ZM564.57,5.47c31.51-10.95,60.95,9.84,68.39,40.23-2,2-26.42-18.26-31.64-17.09-2.22,2.23,7.44,9.27,9.27,10.47,6.35,4.15,13.59,6.15,20,10.47.97.65,2.76,1.06,2.36,2.69-.32,1.31-7.25,4.02-8.92,4.3-17.56,2.93-30.56-9.51-40.49-22l-18.99-29.06Z"/>
            <path class="cls-3" d="M370.59,61.8c2.62-5.93,0-11.81-.04-17.55-.06-10.46,1.58-20.74,1.09-31.21,35.56-42.11,16.99-85.53-23.79-114.43-4.26-3.02-15.05-10.43-19.4-12.08-2.65-1-5.67-1.36-6.65,1.94-.93,3.11-.74,11.06-1.55,15.58-5.87,32.72-20.78,64.97,8.48,91.88,11.65,10.72,19.57,10.08,31.36,16.38,14.38,7.69-1.95,41.59,6.85,48.58,1.17.93,2.19,1.13,3.65.92ZM364.48,7.47c-15.23-3.81-30.37-12.13-39.02-25.42-15.41-23.67-1.46-52.87,2.15-77.83.47-3.26-1.01-7.17,1.65-9.41,23.9,13.58,52.97,38.79,54.66,67.85.9,15.4-4.19,31.72-13.82,43.8l-11.78-44.82,4.01-26.99c-.93-1.33-1.11-2.17-2.44-.62-2.14,2.5-3,9.42-4.5,12.67-.54,1.18.49,1.82-2.13,1.41-4.18-10.55-6.13-22.74-14.29-31.19-1.45,4.42,10.24,28.89,9.17,30.18-3.68-1.6-6.98-4.76-10.91-5.84-1.25-.34-3.14-.61-2.34,1.3.95,2.29,9.75,7.74,12.14,10.18,7.23,7.4,9.39,17.71,11.33,27.56l-19.39-12.57-6.62-1.52-.51,2c8.61,5.69,25.9,15.17,29.31,24.95,1.59,4.56,1.76,9.71,3.34,14.3Z"/>
            <path class="cls-3" d="M709.76,231.06c-1.19,1.17-7.53,22.48-8.68,26.15-4.53,14.48-19.96,60.23-17.85,72.47.86,5.02,3.3,9.14,8.99,7.34,3.69-1.16,8.33-9.29,10.58-12.72,14.82-22.57,26.35-48.3,41.32-70.94,4.13-4.4-2.48-10.92-2.6-12.98-.23-3.88,7.26-16.35,5.96-21.94,26.49-11.86,16.29-38.67,21.94-59.86,1.02-3.82,4.36-6.82,3.38-11.25-4.29-.7-6.97,1.42-10.34,3.39-19.53,11.44-44.23,29.39-39.45,55.23.67,3.61,4.48,6.16,3.44,9.81-.24.83-7.54,12.7-8.18,13.15-2.36,1.66-6.72.4-8.53,2.16ZM763.63,158.39c-3.12,13.35-1.44,29.9-7.61,42.29-9.12,18.32-30.35,12.72-26.63-8.14,2.17-12.21,11.73-19.66,21.27-26.33,1.35-.94,12.37-8.5,12.98-7.82ZM733.09,216.79l7.14,2.56c-.04,2.8-4.09,18.12-5.76,18.49l-9.68-4.55,8.3-16.5ZM715.98,236.98c5.53,4.09,15.19,5.64,20.48,9.06.87.56,1.93,1.02,1.55,2.24-14.66,22.54-25.06,47.58-38.51,70.76-2.56,4.41-4.82,9.11-8.85,12.38-3.51.07-.53-15.59,0-18.09,5.16-24.35,16.82-49.64,22.9-74.01l2.44-2.33Z"/>
            <path class="cls-3" d="M751.29,488.28c3.8-5.55-17.61-18.14-21.36-21.52-5.28-4.77-7.2-7.48-7.17-15.06.04-9.92,4.02-22.73,4.12-33.25.01-1.32-.67-4.84-1.69-5.62-.84-.36-1.8-.8-2.74-.67-4.8.64-22.84,23.28-29.74,25.9-3.13.08-28.13-19.68-34.33-22.51-2.33-1.07-5.19-2.73-7.12-.2-4.01,5.24,5.08,33.93,7,41.22-1.09,5.48-24.38,19.19-27.38,24.22-5.23,8.76,16.8,9.54,22,9.67,4.62.11,9.96-2.69,13.75.48,5,5.49,19.91,43.49,23.5,45.26,1.11.54,2.22.77,3.42.38,4.02-1.29,14.95-36.96,19.52-42.19,4.56-3.61,36.74-3.92,38.23-6.09ZM657.47,423.99c1.59-1.8,30.26,22.22,35.21,22.23,5.4,0,19.87-16.83,25-20.22,1.06,10.94-3.33,25.68-.53,36.24,1.62,6.08,17.13,14.77,21.97,19.6.43,2.31-1.03,1.36-2.54,1.49-8.62.7-24.09.82-30.13,7.54-6.52,7.26-8.71,26.73-14.29,35.72l-20.88-40.27c-5.12-4.43-23.17-3.52-30.14-4-.67-2.35.63-1.7,1.3-2.29,5.02-4.41,21.64-16.27,22.8-21.81,1.3-6.21-10.41-31.24-7.77-34.24Z"/>
            <path class="cls-3" d="M464.01,446.12c.31,0,1.01-.7,1.64-.51,3.64.44,18.2,28,21.5,32.52,5.18,1.41,5.55-3,6.5-6.82,1.23-4.92,3.69-30.1,5.57-31.74l45.82-7.65c.6-2.44.28-4.08-1.37-5.96-4.9-5.55-23.33-10.52-27.9-18.79-1.85-6.06,4.8-27.87,4.71-36.05-.01-1.17-.5-2.3-.96-3.35l-5.56.8-28.52,21.21c-2.5,0-19.12-16.61-21.96-19.61-1.55-1.63-11.72-17.31-14.14-9.93-1.25,3.81,2.69,8.04,5.01,10.88,3.26,3.99,24.86,24.09,28.5,25.25,2.44.78,3.59.52,5.89-.35,3.28-1.24,22.87-18.49,23.76-17.32.91,8.07-5.84,24.34-3.62,31.24,1.58,4.92,18,12.13,22.76,15.75.86.65,1.86,0,1.28,2.3-8.91,2.03-30.2,1.7-37.28,6.02-6.79,4.14-5.89,23.95-8.67,31.2l-17.63-24.36c-11.13-3.65-23.89-.05-35.44.21,1.37-10.27,25.54-20.98,27.35-28.89.93-4.05-4.98-26.13-7.49-29.42-2.37-3.1-4.58-2.54-4.59,1.41-.01,6.4,6.21,22.4,4.74,27.74-1.89,6.85-31.7,20.86-27.16,34.19,12.4.23,24.86-.31,37.26,0Z"/>
            <path class="cls-3" d="M287.91,405.87c-13.26-4.46-34.62-.05-15.82,14.09,7.51,5.65,15.46,6.42,24.42,8.13,3.5,2.34,2.51,14.57,8.21,14.96,8.52.58-.71-15.07-.2-19.44.37-3.2,7.85-11.18,8.81-19.35.78-6.62.75-21.77-9.46-16.36l-9.31,10.92c-1.97-4.46-7.24-10.34-8.9-14.37-1.96-4.73-1.99-10.2-4.71-15.48-4.24-8.22-14.65-17.77-23.29-21.31-13.6-5.57-13.4,1.37-10.07,11.94,3.13,9.91,9.67,19.16,17.96,25.56,9.06,7,20.02,7.07,22.37,20.7ZM254.24,354.57c14.97,4.25,18.47,17.54,23.46,30.18-12.19-5.55-20.75-17.32-23.46-30.18ZM304.27,395.83l2.03.5c-.13,3.61.31,7.23-.25,10.82-.22,1.43-3.52,11.96-5.87,9.8-3.93-9.25-.33-13.33,4.1-21.12ZM272.61,410.92c8.15-2.42,21.69-.06,22.45,10.04-8.1.14-17.51-3.58-22.45-10.04Z"/>
            <path class="cls-3" d="M436.11-30.51c-20.82-.43-42.82,16.2-43.86,37.49-.13,2.73,1.53,5.01.55,8.81-1.52,5.91-11.4,13.26-12.62,17.83-.49,1.85.19,2.37,1.63,3.58,9.35-.59,10-16.91,17.31-19.21,5.41-1.7,8.15,1.13,12.81,1.57,30.91,2.87,39.88-15.69,59.22-34.23,2.47-5.24-6.01-8.5-10.03-10.22-7.02-3.01-17.39-5.45-25.02-5.61ZM398.18,9.48c.64-33.06,40.29-41.01,64.3-24.64-8.1,4.7-11.31,14.22-18.36,20.13-11.05,9.26-27.27,10.97-40.84,7.52l11.99-10.82,17.61.76-8.16-4.51,13.25-7.05c-2.03-3.92-11,1.7-12.22.5l1.01-7.03c-4.64.75-5.38,6.92-8.68,10.05-5.1,4.82-15.09,8.56-19.89,15.1Z"/>
            <path class="cls-3" d="M226.64,42.67c-4.57-1.32-7.75-5.48-13-4.36-11.77,2.52-8.74,16.74-3.3,23.99,2.04,2.72,13.01,13.03,15.76,14.64,1.36.8,2.44,1.33,4.09.99,2.72-.39,11.83-14,13.37-17.1,3.1-6.26,5.72-15.37,1.5-21.68-5.43-8.1-15.51-4.48-18.41,3.51ZM238.24,40.76c8.8,2.47-3.58,24-7.47,27.6-1.11,1.03-1.61,1.84-3.4,1.38-4.19-2.57-23.38-21.66-13.29-24.91,7.66-2.47,9.6,9.46,12.99,8.89,2.78-.47,4.23-14.9,11.17-12.95Z"/>
            <path class="cls-3" d="M373.95,530.86c-11.7-2.39-16.06,4.42-14.32,15.12.65,4,6.37,19.22,10.52,19.87,9.31,1.45,38.32-16.7,24.93-26.65-4.34-3.22-8.59-1.62-12.53-2.74-2.05-.58-4.5-4.77-8.6-5.6ZM372.95,536.88c3.65.83,5.23,4.93,7.57,5.62,3.31.97,7.23-.63,10.57.65,7.37,5.09-14.67,16.2-18.98,16.43-4.38-5.86-13.42-25.93.85-22.69Z"/>
            <path class="cls-3" d="M529.84,265.02c-17.39-6.19-26.94,5.17-10.54,16.94,3.47,2.49,17.9,10.19,21.54,8.57,2.87-1.28,6.68-18.34,6.31-21.87-1.25-11.9-14.76-17.83-17.31-3.64ZM535.21,263.27c4.53-3.37,6.68,2.48,6.79,6.38.07,2.19-3.35,14.35-4.58,14.56-7.86-2.78-16.57-6.07-20.81-13.65,9.89-6.65,16.53,10.88,18.6-7.28Z"/>
            <path class="cls-3" d="M565.87,149.56c-17.34-3.51-24.46,21.83-9.18,29.16,21.55,10.34,32.27-24.48,9.18-29.16ZM565.88,155.58c12.09,2.69,7.17,24.11-6.69,17.66-9.99-4.65-5.6-20.4,6.69-17.66Z"/>
            <path class="cls-3" d="M101.1,253.46c.17.61,2.48,2.67,3.47,2.47,4.55-.9,5.49-24.14,4.24-28.18-1.74-5.63-7.71-3.85-7.71-1.46,0,5.75-1.16,23.11,0,27.16Z"/>
            <path class="cls-3" d="M119.48,267.04c1.89.15,3.01.24,4.57-1.02.69-.56,8.91-13.95,9.26-15.03,1.58-4.84-2.76-10.26-6.18-7.09-1.96,1.81-9.54,21.3-7.65,23.14Z"/>
            <path class="cls-3" d="M150.4,271.28c-5.13-1.53-17.63,1.47-19.63,7.2.85,4.89,16.26-.36,19.34-1.88,3.35-1.66,4.5-4.07.3-5.32Z"/>
            <path class="cls-3" d="M82.79,402.94l.07,2.82c8.83,4.58,18.13,2.61,27.46.66,4.33-.91,22.56-4.9,21.4-11.08-.82-4.41-15.51,1.66-18.17,2.19-10.32,2.09-20.82,2.22-30.77,5.4Z"/>
            <path class="cls-3" d="M103.21,489.32c8.83,4.56,37.93-.44,45.23-6.11,2.57-2,4.3-6.76.23-6.86-4.15-.11-15.65,4.97-21.65,5.88-2.9.44-28.61.14-23.81,7.1Z"/>
            <path class="cls-3" d="M140.92,436.07c-7.98-.28-15.31,3.67-23.09,4.91-5.73.91-20.34.38-23.88,3.63-2.72,2.5.11,4.72,2.79,5.32,7.86,1.77,32.37-2.8,39.62-6.79,3.1-1.71,5.24-3.15,4.56-7.07Z"/>
            <path class="cls-3" d="M741.17,182.53c-3.09-3.5-14.48,20.2-5.61,23.12,4.2-2.54,1.34-4.98,1.58-8.39.35-4.98,4.41-9.52,4.03-14.72Z"/>
          </g>
          <g>
            <path class="cls-3" d="M1160.74,605.08c4.07,3.8-2.4,7.53-3.58,11.07-2.33.39-1.39-1.01-1.52-2.5-.25-2.82.17-5.75,0-8.57h-6.13c.23,5.5-.55,13.17,1.26,18.37.71,2.04,3.84,3.86,5.29,5.86,5.07,7.02,11.24,12.32.33,17.26-4.93,2.23-3.19-.54-5.28-2.28-5.5-4.58-37.72-6.53-46.51-9.03-.46-1.74.73-2.01,1.52-3.02,2.3-2.96,7.73-7.96,10.71-10.57,5.45-4.78,16.02-9.34,16.35-16.59h-5.1c-8.4,5.55-16.74,12.14-24.02,19.09-5.31,5.07-17.06,12.95-5.43,16.47,14.36,4.35,32.85,5.03,47.82,7.71,1.4,1.25-9.34,26.06,3.14,18.68l20.17-23.43c2.52-5.7-11.17-16.48-10.89-19.74,2.99-6.42,10.92-11.02,10.04-18.78h-8.17Z"/>
            <path class="cls-3" d="M1852.87,605.08l4.08,11.05c-17.62,4.97-32.17,9.05-50.57,5.07-1.42-.31-2.96.87-2.5-1.52l18.37-14.6h-9.19c-4.5,3.18-23.05,12.44-18.91,19.14,17.14,9.16,36.33,5.01,54.51,2.11,2.79,1.77-2.83,24.83-3.97,29.05-1.88,1.44-8.08-14.56-10.18-15.66-1.97-1.03-3.96,1.27-4.04,3.04-.23,4.55,10.23,22.8,15.79,22.66,5.09-1.6,6.17-9.23,7.34-13.85,1.17-4.63,3.71-27.04,4.58-28.17.83-1.08,5.91-.78,6.81-3.94.96-3.37-4.65-10.4-4.97-14.38h-7.15Z"/>
            <path class="cls-3" d="M1527.22,605.08c-2.14,8.38-4.98,31.38-10.16,37.51-4.16,4.93-20.32,4.72-25.53,1.15l12.2-38.67h-6.13l-13.51,41.51c-3.44,6.25-7.91,3.27-13.28,1.49-5.25-1.74-19.04-7.52-20.73-12.77-2.23-6.9,6.53-22.68,7.71-30.23h-6.13c-3.27,12.85-16.06,30.18-1.36,40.08,8.69,5.85,34.12,18.68,39.71,4.13,9.87,5.7,27.99,5.26,33.63-5.96,4.98-9.9,7.2-27.22,8.67-38.24h-5.1Z"/>
            <path class="cls-3" d="M911.65,605.08c7.93,8.97,15.53,20.4,5.61,31.17l-12.23-11.07-5.64-20.1h-4.08l4.07,15.09c-5.64-4.17-13.37-7.83-15.3-15.09h-6.13c2.81,9.48,12.21,13.77,19.11,19.83.68.6,1.97-.06,1.3,2.29-12.18,1.63-23.86,1.27-34.7-5.03v7.04c12.72,6.61,27.22,2.8,40.89,4.47,5.08,1.54,13.9,14.94,18.77,17.71,3.25,1.85,7.69,1.54,5.96-2.77-1.16-2.9-6.35-5.09-6.34-8.85,0-2.48,4.15-7.64,4.79-11.31,1.66-9.58-1.89-16.36-7.92-23.4h-8.17Z"/>
            <path class="cls-3" d="M1514.97,605.08c-.33,2.97-7.19,24.57-3.46,25.22,1.32-.09,2.79-.4,3.88-1.16,3.13-2.19,7.51-19.81,4.68-24.06h-5.1Z"/>
            <path class="cls-3" d="M863.67,894.83c11.36.78,10.02-6.8,0-8.05v8.05Z"/>
            <path class="cls-3" d="M1398.59,1185.55c-2.1.19-5.82,2.26-6.66,4.09-1.37,2.99,2.07,4.31,1.14,8.01-1.03,4.1-16.18,28.2-19.57,33.12-13.08,19.04-32.48,19.87-47.21,40-22.9,31.3-35.99,77.02-54.34,111.44-7.72,22.71,21.6,37.14,39.34,42.83,9.2,2.95,30.63,9.2,35.23-2.02-19.26-.54-41.83-5.95-57.5-17.28-12.36-8.94-15.15-15.17-7.03-28.73.36-.6.03-1.97,1.74-1.27,1.25.51,8.85,7.64,11.84,9.47,6.55,4.01,19.2,11.67,25.3,3.97,8.74-18.38,18.51-36.47,26.86-55.03,1.68-3.74,8.82-18.74,8.95-21.39.44-9.41-13.34-11.55-19.82-16.54-1.44-1.11-9.79-9.09-10.29-10.06-1.09-2.15,7.72-14.16,9.78-16.54,11.47-13.23,28.04-15.59,39.17-28.8,4.51-5.36,24.76-38.39,25.17-43.66.27-3.43-.92-6.77-.06-10.55,4.02-2.17,23.84,9.1,27.48,12.67l-2.47,4.4c-9.36-9.35-19.51.93-6.66,6.55-6.89,13.45-15.84,28.73-19.09,43.55-2.69,12.26,1.76,16.94,2.76,27.91,2.32,25.35-5.84,32.88-13.43,54.14-.71,1.99-55.49,93.64-49.68,92.74,13.99.29,53.07-83.85,54.77-86.72,5.73-9.66,14.73-32.08,15.56-43.02,1.11-14.71-4.87-30.52-2.86-43.06.93-5.8,14.51-38.04,18.06-42.3,1.8-2.16,6.23-.74,6.92-5.38.15-1.02-1.02-2.66-.64-3.21,1.02-1.49,6.52-1.55,3.46-8.18-1.77-3.83-18.14-13.26-22.68-14.87-5.32-1.89-16.65-5.54-13.55,3.75ZM1321.03,1292.23c1.57-.37,1.63.24,2.47,1.07,6.38,6.31,7.47,8.64,16.02,13.39,2.43,1.35,10.22,2.87,9.91,5.97-10.2,20.08-18.42,41.33-28.56,61.42-1.31,2.59-5.16,11.84-8.35,11.55-9.5-4.73-20.56-9.15-26.2-18.42l34.7-74.98Z"/>
            <path class="cls-3" d="M934.41,920.19c-2.31-.53-4.2-.31-6.45.27-2.44.63-17.99,8.86-18.85,10.58-.92,1.84.48,12.06,1.57,13.49,1.66,2.2,4.34,1.03,6.58,3.64,4.7,5.47,19.66,40.78,19.71,47.76.04,5.22-2.89,12.63-2.93,18.12-.1,11.99,3.52,23.49,8.08,34.38,12.24,29.26,28.98,57.18,42.49,85.89,12.09,12.72,45.5-1.42,57.63-9.7,7.37-5.03,19.59-14.74,15.95-24.59-15.42-29.63-27.15-62.73-43.9-91.54-14.83-25.5-28.14-21.49-43.93-38.19-4.19-4.43-27.21-33.37-28.57-37.29-.79-2.28,1.72-5.23,0-8-.45-.73-6.21-4.57-7.35-4.83ZM944.37,1036.63c-1.55-9.43-3.91-17.85-3.1-27.59.39-4.68,2.87-10.6,2.83-15.11-.05-6.49-6.2-19.69-9.12-26.01-2.47-5.34-10.72-17.71-11.68-21.78-.65-2.73,1.28-4.58.17-7.09-1.93-2.64-8.11,2.26-8.64-3.65-.2-2.23,15.79-10.55,17.27-9.88l1.99,2.02c-5.34,4-7.82,10.69,1.39,8.67,9.88,11.77,18.41,26.78,28.73,38.13,9.31,10.24,19.53,11.89,29.59,20.14,15.86,13.01,32.07,51.64,41.23,71.04,5.74,12.17,10.87,24.63,17.08,36.58,1.01,4.08-6.18,10.41-9.31,13.04-10.51,8.84-32.97,18.73-46.84,17.05-8.43-1.02-8.88-7.2-11.83-13.99,9.35-2.24,29.29-5.37,23.71-18.85l-32.84-65.23c-6.03-7.23-14.31.79-22.46,2.12-2.73.45-5.41.73-8.17.4ZM947.38,1043.74c7.06-.67,14.23-1.91,20.37-5.64l1.6.5c3.2,7.8,34.49,63.11,32.23,66.03s-18.52,8.69-21.09,6.64l-33.12-67.52Z"/>
            <path class="cls-3" d="M1977.63,677.82c-54.03-5.76-94.2,46.7-69.81,95.96,25.55,51.61,103.08,48.3,124.19-5.73,15.57-39.84-11-85.61-54.39-90.23ZM1957,684.57c25.91-4.97,55.67,8.45,66.37,32.67-4.25,1.41-9.22,2.42-11.66,6.64-2.79,4.8-.54,6.84-.52,11.47.01,2.74-1.09,5.69-.89,7.84.43,4.49,9.82,10.79,4.47,14.92-2.61,2.01-12.5-.06-15.41,6.91-2.54-2.71-6.27-5.27-10.19-5.08-2.47.12-4.1,1.79-6.19,2.04-5.89.71-11.62-1.47-16.24,4.12-6.12,7.41-.17,14.79-.78,21.36-.43,4.62-6.23,9.6-4.31,14.73l-1.13,2.08c-17.89-3.01-32.71-12.28-43.33-26.66-.35-2.13.35-1.19,1.4-1.59,5.02-1.94,7.98-1.89,11.86-6.44,4.58-5.38,12.13-23.08,16.35-26.14,7.76-5.61,17.44,5.94,28.57.99,7.11-3.16,4.18-6.33,5.88-10.28.95-2.21,3.58-3.56,4.84-6.32,4.37-9.51-.04-14.05-8.67-17.61,6.76-5.04,7.58-13.16-2-15.15-4.36-.9-8.89.38-12.68-2.59-2.32-1.82-3.39-5.74-5.75-7.9ZM1942.36,711.38c7.86-7.82.61-22.88,6.13-24.67,7.33-2.38,6.23,8.27,10.57,11.4,3.98,2.87,5.82.45,9.18.99,1.11.18,8.14,3.29,8.13,4.07-2.26,2.36-5.61,5.49-5.13,8.99,1.61,6.22,9.72,2.33,10.33,9.11.56,6.2-3.2,5.59-5.06,9.19-1.66,3.22-.23,8.16-3.9,9.23-8.34,2.42-12.61-3.5-19.23-3.86-17.43-.95-23.42,32.44-32.65,34.22-1.59.31-6.47.36-7.68-.44-3.28-2.17-6.22-22.76-6.15-27.24.11-6.84,3.14-21.72,6.97-27.37,3.66-5.4,9.74-.95,14.08-.32,4.81.7,10.83.25,14.4-3.3ZM1919.23,707.7c-1.5-1.23,9.39-11.12,10.71-12.07,1.56-1.13,9.59-6.18,10.72-5.02-.78,6.18,3.43,12.38-2.52,17.12-6.17,4.91-12.31-.3-18.9-.03ZM1979.46,803.27c4.92-3.33,3-8.75,4.58-12.07,1.15-2.41,8.33-3.96,10.75-6.51,4.11-4.32,3.12-12.65,9.13-18.17,5.32-4.88,11.77.08,15.78-6.58,5.35-8.87-2.49-11.22-3.46-16.58-.58-3.22.87-5.61.77-7.99-.1-2.34-1.92-6.31-1.6-7.94.47-2.47,8.52-4.29,10.99-5.64,13.46,34.53-9.21,76.54-46.95,81.48ZM1966.18,804.29c-1.64-6.01,4.26-10.62,5.04-15.66,1.16-7.42-6.42-18.95,3.29-21.91,1.92-.59,10.95-2.34,12.86-2.45,2.48-.15,4.95,1.08,7.16,2.03,1.51,1.37-2.18,13.23-3.39,14.8-1.9,2.46-8.19,3.09-10.7,6.56-4.48,6.21-.7,18.76-14.27,16.63Z"/>
            <path class="cls-3" d="M1943.73,1316.38c-8.27-1.02-17.14-.19-23.51-6.51-3.55-3.52-4.53-12.94-6.93-18.32-12.13-27.2-45.74-41.56-73.97-29.28-1.65.72-3.72,1.04-3.8,3.26-.07,3.22,6.68,8.95,8.6,11.69,14.58,20.85,30.76,52.54,61.89,46.74,5.13-.96,11.98-7.12,13.72-7.2,2.25-.1,9.11,3.76,12.51,4.4,3.59.68,7.4-.39,10.9,1.13,2.08,1.47-2.44,20.13,6.7,19.22,1.96-10.66-3.42-20.71.96-31.76,1.73-4.37,9.29-6.76,13.36-9.97,30.43-24.05,8.22-74.07-10.39-99.44-1.71-2.33-9.19-12.78-11.39-12.6-2.81.23-10.03,11.69-11.72,14.64-18.64,32.5-27.05,70.47,3.87,98.41,5.84,5.27,12.15,5.08,9.2,15.59ZM1941.71,1197.67l2.11.64c16.26,22.27,31.4,48.71,28.49,77.32-.82,8.07-5.68,14.51-11.7,19.65-1.77,1.51-7.24,5.68-9.2,6.03-1.81.33-1.54-.12-1.58-1.54,1.13-9.17.54-16.1,4.59-24.68,1.32-2.79,8.81-12.86,8.69-14.56-.07-1.04-1.73-1.68-3.05-1.02-2.55,1.27-6.46,11.06-9.17,9.57-1.07-10.3,1.2-31.88-4.64-40.18-.39-.55-2.02-2.41-2.49-2.06.08,1.68-1.59,3.17-1.75,4.65-.44,4.07,3.37,17.29,3.77,23.02.22,3.16-.11,6.38,0,9.54-2.01.52-1.97-.82-2.87-1.69-2.96-2.88-5.47-8.06-10.4-8.36,4.49,8.89,11.93,17.05,13.83,27.1,1.29,6.85-1.38,13.22-.56,20.17-1.77.45-2.04-.72-3.06-1.5-19.4-14.74-25.06-32.21-21.13-56.05,2.87-17.39,11.63-31.07,20.14-46.06ZM1844.71,1267.09c31.51-10.95,60.95,9.84,68.39,40.23-2,2-26.42-18.26-31.64-17.09-2.22,2.23,7.44,9.27,9.27,10.47,6.35,4.15,13.59,6.15,20,10.47.97.65,2.76,1.06,2.36,2.69-.32,1.31-7.25,4.02-8.92,4.3-17.56,2.93-30.56-9.51-40.49-22l-18.99-29.06Z"/>
            <path class="cls-3" d="M955.56,856.59c2.64-1.31,6.89-1.53,9.14-2.55,2.99-1.36,12.73-16.95,14.73-20.7,5.36-10.1,4.51-18.61,15.97-23.5,17.6-7.51,26.29-9.29,36.53-27.38,16.9-29.85,9.61-62.87-4.03-92.22-2.18-4.69-15.52-29.75-18.96-30.68-6.32-.96-7.26,8.66-9.62,13.29-10.65,20.89-28.75,34.05-34.49,57.56-6.85,28.07-1.09,59.13,18.13,81.23-3.82,10.23-8.57,18.63-15.18,27.32-4.16,5.47-11.5,9.98-12.21,17.63ZM1003.21,683.31c1.75-1.43,4.24-11.83,5.93-11.81,9.16,14.06,16.51,29.63,20.85,45.83,4.87,18.2,6.87,33.54.55,51.69-6.3,18.11-22.23,33.1-41.3,37.26,3.14-5.97,3.59-18.77,7.11-23.66,3.85-5.35,18.39-6.1,21.46-14.07-6.39-1.01-12.4,4.92-17.88,6.53-1.57.46-1.65-.08-1.48-1.45,1.06-8.61,6.89-20.4,12.25-27.18,1.56-1.97,14.22-13.65,12.21-15.62-4.09-1.92-14,15.64-16.32,13.07,1.89-14.04,6.21-27.97,3.05-42.26-2.7-.21-1.69-.1-2,1.53-2.36,12.45-2.92,25.32-5.63,37.73-1.24,1.63-1.6.58-2.43-.66-3.35-5.05-5.1-12.72-10.34-16.46.55,10.48,9.16,22.4,9.16,32.7,0,7.81-7.53,26.62-9.9,35.51-.78,2.94-1.41,12.38-3.89,13.28-1.92.7-5.61-8.65-7.15-10.03-10.76-19.06-13.15-51.63-4.32-71.71,3.32-7.56,21.39-32.66,27.25-39.34.85-.97,2.26-.45,2.8-.89Z"/>
            <path class="cls-3" d="M1736.72,996.24c-.39-.71-.7-3.39.27-3.81,3.92,2.28,18.79,1.2,16.71,8.33-8.41,11.91-38.76,15.56-51.19,10.57-14.55-5.84,4.12-10.13,4.25-14.53.19-6.58-13.4,1.09-15.43,5.93-1.07,2.55-.37,4.79-1.01,7.05-.52,1.81-2.73,3.53-3.56,5.54-4,9.67-1.29,22.36-.14,32.81,2.39,21.76,7.07,43.29,9.54,65.05,1.27,4.24,6.15,8.3,10.05,10.21,18.34,8.98,73.29,3.64,74.23-22.88-4.19-26.32-5.06-54.14-9.35-80.3-2.17-13.24-3.35-9.5-9.07-18.22-1.42-2.16-1.43-4.5-2.61-6.48-3.05-5.11-13.06-8.64-18.76-9.68-2.28-.42-9.72-.27-10.12-.61-1.91-1.65-1.28-8.08-9.05-9.67-21.53-4.42-15.36,24.7-2.36,28.47,1.97.57,8.12,2.19,9.82,2.47,3.92.65,12.87-2.36,11.54-7.34-.54-2.03-3.41-2.31-3.74-2.91ZM1719.4,981.51c6.65,1.25,5.18,10.92-1.74,9.94-6.36-.91-5.22-11.25,1.74-9.94ZM1726.79,992.77c2.14,0,4.45,3,4.52,5.09l-5.55,3.33c-5.29-1.96-3.65-8.41,1.03-8.42ZM1758.3,1007.59c4.66,2.87,5.76,7.59,6.67,12.61,1.54,8.45,1.12,18.44,2.15,27.05,1.77,14.78,5.04,30.66,6.11,45.29.64,8.73,1.41,11.42-5.58,17.62-10.75,9.53-33.14,11.25-47.02,10.08-8.34-.7-17.86-3.88-19.63-12.85-4.19-21.21-7.93-52.55-9.42-74.22-.33-4.85-1.22-9.74.82-14.27,3.45-7.64,4.65-3.14,10.16-1.59,18.94,5.32,40.17,2.52,55.73-9.71Z"/>
            <path class="cls-3" d="M1759.21,800.43l-2.85.79c-.82,1.42-.55,2.84-.25,4.33,1.63,7.99,12.03,32.36,15.94,40.67,7.14,15.19,17.47,30.4,36.98,25.97.78.44,8.7,14.32,8.96,15.36.57,2.31-1.16,4.84-.83,7.69.47,4.09,14.33,16.7,17.87,20.7,14.66,16.58,32.84,41.72,48.44,55.89,3.76,3.42,14.84,10.63,17.18,2.76,1.39-4.66-2.61-12.65-4.71-17.07-8.28-17.49-21.34-35.79-30.98-52.97-3.67-6.53-12.64-28.75-18.46-31.11-2.97-1.21-5.63-.12-8.48-1.7-.94-.52-14.82-14.1-15.2-15.1-.3-.79.53-8.86,0-12.18-4.14-25.82-42.68-36.14-63.6-44.05ZM1766.11,812.34c19.09,3.49,54.67,20.03,49.78,43.53-2.11,10.17-14.52,11.52-22.57,6.61-11.79-7.21-22.88-37.06-27.21-50.13ZM1820.58,863.71l13.9,13.51-9.69,7.52-9.7-15.59c0-1.44,4.03-5.7,5.49-5.44ZM1894.72,972.29c-.95,1.11-8.71-6.03-9.7-7.03-14.68-14.67-29.01-34.38-42.85-50.33-6.09-7.01-12.75-13.62-18.88-20.61l18.38-14.11c2.18-1.32,3.9.31,4.92,2.21,12.35,25.03,28.6,48.07,41.53,72.75,1.43,2.74,8.41,15,6.61,17.12Z"/>
            <path class="cls-3" d="M1650.73,1323.41c2.62-5.93,0-11.81-.04-17.55-.06-10.46,1.58-20.74,1.09-31.21,35.56-42.11,16.99-85.53-23.79-114.43-4.26-3.02-15.05-10.43-19.4-12.08-2.65-1-5.67-1.36-6.65,1.94-.93,3.11-.74,11.06-1.55,15.58-5.87,32.72-20.78,64.97,8.48,91.88,11.65,10.72,19.57,10.08,31.36,16.38,14.38,7.69-1.95,41.59,6.85,48.58,1.17.93,2.19,1.13,3.65.92ZM1644.62,1269.09c-15.23-3.81-30.37-12.13-39.02-25.42-15.41-23.67-1.46-52.87,2.15-77.83.47-3.26-1.01-7.17,1.65-9.41,23.9,13.58,52.97,38.79,54.66,67.85.9,15.4-4.19,31.72-13.82,43.8l-11.78-44.82,4.01-26.99c-.93-1.33-1.11-2.17-2.44-.62-2.14,2.5-3,9.42-4.5,12.67-.54,1.18.49,1.82-2.13,1.41-4.18-10.55-6.13-22.74-14.29-31.19-1.45,4.42,10.24,28.89,9.17,30.18-3.68-1.6-6.98-4.76-10.91-5.84-1.25-.34-3.14-.61-2.34,1.3.95,2.29,9.75,7.74,12.14,10.18,7.23,7.4,9.39,17.71,11.33,27.56l-19.39-12.57-6.62-1.52-.51,2c8.61,5.69,25.9,15.17,29.31,24.95,1.59,4.56,1.76,9.71,3.34,14.3Z"/>
            <path class="cls-3" d="M1187.29,736.86c5.09,3.2,8.08.98,12.72.97,7.58,0,14-.54,20.89,3.15-2.51,16.57-34.44,25.12-48.46,24.1-14.08-1.03-10.18-6.65-1.86-13.04,2.01-.35,4.95,5.9,10.08,6.03,2.18.06,4.07-1.03,6.11-1.08,4.86-.12,7.63,2.29,12.7-2.56,6.2-5.93-.91-6.02-3.99-8.05-1.38-.91-1.6-2.47-2.42-3.12-5.16-4.08-9.11-8.79-16.28-7.17-5.86,1.33-5.39,7.46-8.31,10.91-4.16,4.92-15.82,8.84-10.19,17.96,6.82,11.05,39.68,3.51,49.79-1.07,6.21-2.82,11.89-6.71,15.08-12.8,2.2-1.27,5.25,2.4,6.41,3.98l26.1,83.85c-3.28,11.2-14.75,17.11-25.27,20.41-12.99,4.07-34.14,8.17-43.85-3.5-6.88-25.68-18.41-51.14-25.34-76.64-1.17-4.33,1.05-10.11-5.55-11.12-2.17,6.36-.2,11.22,1.3,17.32,4.89,19.79,15.24,51.96,23.43,70.47,6.97,15.73,24.85,14.97,39.79,12.54,18.18-2.96,44.27-13.76,40.15-35.99-4.63-24.98-19.11-53.21-24.25-78.72-.09-3.88-7.69-6.99-8.46-8.69-.6-1.33,1.74-4.8-.82-7.83-5.29-6.27-33.63-8.3-39.51-.3ZM1180.12,749.95c-9.63-2.26-1.44-13.91,3.14-5.53l-3.14,5.53ZM1188.76,746.96l2.53,3.36-4.5,3.66c-3.19-1.34-.37-7.54,1.97-7.01Z"/>
            <path class="cls-3" d="M1348.71,771.21c-2.95,4.63,8.78,15.57,12.11,18.5,2.58,2.27,9.39,5.92,10.93,7.82,5.45,6.73-3.08,38.15-3.76,47.51-.27,3.65-.92,8.74,4.11,7.11,3.74-1.22,15.6-16.26,20.36-20.22,2.42-2.01,5.75-5.12,8.64-5.57,2.7.26,21.49,19.91,25.6,23.16,3.31,2.62,6.94,6.05,11.58,4.93,4.44-14.53-3.81-28.78-4.76-42.94,9.42-6.41,20.84-10.83,30.33-16.88,1.54-.98,6.47-3.83,6.12-5.81-1.07-6.22-29.45-9.15-34.69-12.15-3.8-8.28-6.33-17.04-9.96-25.4-1.64-3.78-9.89-22.48-11.67-24.2-.95-.92-2.78-1.32-4.12-1.12-5.19,1.27-17.24,34.46-21.6,40.15-4.66,3.35-38.07,3.29-39.23,5.1ZM1357.76,776.11h14.8c2.55,0,13.95-1.93,16.41-2.94,8.95-3.66,15.37-27.93,20.33-36.31,1.04-1.24,1.05-1.17,2.04.02,1.78,2.13,5.83,11.06,7.12,14.11,3.32,7.85,6.19,22.89,10.76,28.63,5.7,7.17,19.36,6.61,27.56,9.58,1.54,1.96-27.96,14.29-30.16,21.06-2.61,8,8.41,24.6,6.17,34.27-7.62-3.27-24.13-23.93-30.65-25.15-7.61-1.44-16.31,10.23-21.91,14.59-1.03.8-1.31,1.94-3.07,1.49,2.33-10.52,5.14-25.06,1.75-35.42-3.06-9.36-14.12-13.8-19.62-20.9-.79-1.01-1.97-1.27-1.52-3.03Z"/>
            <path class="cls-3" d="M1521.12,967.23c14.18,4.49,10.6-24.67,23.98-25.18,9.36-.36,13.76,2.32,24.75-.68,34.4-9.39,32.31-45.22,33.94-73.19.32-5.44,2.02-12.92,2.08-18.17.01-1.12.02-2.33-1.01-3.03-2.4-1.64-23.93,3.48-28.06,4.66-35.75,10.21-64.92,55.3-43.66,89.81l-12.02,25.77ZM1561.42,937.09c-5.56.65-12.17-.47-17.86,0,.49-2.6,2.74-5.18,4.27-7.36,1.84-2.63,8.68-12.51,10.5-13.8,3.81-2.69,19.45-5.14,20.93-8.55.19-.44.41-2.49-.49-2.49-3.47-.43-7.17,1.46-10.45,1.79-1.17.12-3.11.87-2.3-1.26,2.9-7.58,17.07-15.16,14.27-25.67-3.15-3.27-11.22,13.69-12.42,15.42-2,2.88-5.15,6.61-7.99,8.72v-16.6c0-.19-1.65-1.8-2.03-1.51-1.63,5.88-3.94,11.67-5.01,17.71-.67,3.79.49,7-.89,11.2-2.2,6.68-12.04,14.25-14.54,21.39-4.4-5.19-5.42-14.88-5.07-21.62.88-16.94,8.23-29.02,20.39-40.27,14.33-13.26,25.95-18.82,45.95-20.61-.51,13.51-1.18,27.23-3.2,40.6-3.07,20.26-10.12,40.11-34.05,42.9Z"/>
            <path class="cls-3" d="M1219.95,1062.84c3.92-15.97-2.75-31.61-5.83-47.07-1.37-6.87.84-21.9-8.49-14.81-23.02,17.5-41.22,45.76-26.34,74.29,3.2,6.13,12.61,12.58,13.59,14.78.33.74,1.9,18.66,6.17,12.09,2.5-3.85-3.29-13.51,7.58-16.68,4.9-1.43,7.96,1.21,12.76,1.6,15.9,1.27,36.88-4.63,50.63-12.56,9.79-5.65-8.22-11.87-13.06-13.39-14.14-4.45-23.36-3.47-37.01,1.76ZM1193.41,1082.97c-10.29-8.77-14.95-22.2-13.01-35.45,1.68-11.4,15.06-29.56,24.23-36.49,1.02-.77,1.29-1.95,3.06-1.5.15,12.43,5.4,24.23,6.18,36.67.86,13.74-.47,31.08-15.36,36.76-1.78-1.96,2.62-25.55.52-31.2-1.15-3.1-3.17,3.2-3.35,3.77-.54,1.71-2.28,7.6-2.28,8.82v18.61ZM1211.79,1079.94c8.15-20.59,34.13-17.61,51.03-10.04-.24,1.53-3.47,2.21-4.84,2.76-14.48,5.8-30.53,9.99-46.19,7.28Z"/>
            <path class="cls-3" d="M1661.22,661.66c-43.25-6.63-73.86,41.87-46.63,76.14,23.87,30.03,74.6,18.52,82.85-18.78,5.23-23.62-11.06-53.5-36.23-57.35ZM1679.99,679.88c17.91,18.55,13.14,52.39-10.89,63.51-36.71,16.99-72.64-19.73-52.57-54.83,12.82-22.43,44.95-27.86,63.46-8.68Z"/>
            <path class="cls-3" d="M899.6,733.14c-19.76-.66-7.87,8.61-4.76,20.81,5.11,20.04,5.15,46.3,29.85,54.08,10.71,3.38,14.78.24,24.25.25,9.7,0,10.61,19.44,18.89,14.65,1.64-.95-.45-4.07-1.03-5.09-1.99-3.56-8.32-9.79-9.05-13.29-.84-4.07,2.7-11.35,2.78-15.97.59-32.21-30.9-54.43-60.94-55.44ZM949.42,803.27c-18.56,3.95-38.22-6.22-44.17-24.36-3.34-10.18-1.19-21.24-5.33-31.97-2.5-6.48-8.26-9.23,6-7.92,16.77,1.54,32.88,11.39,41.26,25.73,6.06,10.35,6.45,20.79,7.34,32.49-1.8.36-2.51-.91-3.58-1.99-2.76-2.79-13.75-16.44-15.82-19.62-1.66-2.55-1.59-6.37-2.52-7.57-.6-.77-9.75-3.22-11.26-6.01-.74,2,1.68,5.7,2.74,7.36,1.96,3.08,9.19,10.35,10.02,12.26.92,2.13-1.67,1.38-2.56,1.47-1.01.1-11.39.31-8.66,3.03.67.67,14.58,3.31,18.28,5.64,1.77,1.12,9.3,10.5,8.26,11.47Z"/>
            <path class="cls-3" d="M1896.77,1108.11c-5.49,1.06-22.85-6.14-26.08-1.03-1.71,3.3,2.34,5.18,4.96,6.26,5.42,2.25,13.74,2.24,19.64,1.86,3.41-.22,11.45-.5,12.17-3.95-.67-8.97,5.31-22.28-4.03-28.28-2.87.64-2.75,14.1-2.56,16.59l-2.03.5c-5.18-8.54-12.65-18.8-19.77-25.8-2.24-2.2-11.94-11.14-15-8.96l-.81,3.86,33.52,38.95Z"/>
            <path class="cls-3" d="M1472.1,1090.01c2.4-.5,1.64.32,2.28,1.3,2.44,3.71,9.59,16.95,10.48,20.82,1.86,8.14.26,11.41-8.13,12.13-9.41.8-23.95-3.52-31.66-2.02-7.63,1.48-1.8,6.16,4.17,6.9,7.08.87,20.67,2.34,27.39,2.16,5.03-.14,11.02-2.26,13.85-6.57,7.14-10.87-7-27.21-11.24-37.22,2.86-.13,13.83,3.4,12.15-2.86-.82-3.06-17.76-8.39-20.61-7.56-3.65,1.06-9.94,23.36-4.31,23.78,3.49.26,6.05-7.91,5.64-10.86Z"/>
            <path class="cls-3" d="M1421.05,1119.18c-6.91-2.15-31.01-.13-34.17-7.05-3.25-7.1,7.1-20.15,11.75-25.61,1.51-1.77,5.55-4.14,5.94-5.23.95-2.68-.27-8.26-4.23-7.27-2.02.51-17.52,23.31-18.94,26.7-10.23,24.34,19.93,22.43,35.6,23.98,1.69,1.32.56,1.06-.02,2.01-1.14,1.85-9.11,10.48-2.57,11.25,3.96.47,14.94-11.23,17.74-14.4.24-1.24-6.8-12.06-8.19-13.77-1.38-1.7-5.21-7.03-7.52-3.73-2.89,4.13,6.49,11.29,4.63,13.11Z"/>
            <path class="cls-3" d="M1415.96,1053.79c-.27-2.57-2.59-9.08-5.64-8.84-5.25.4-.86,19.05-.28,22.71,6.74,2.64,14.47,1.15,21.22-.8.24-6.68-5.37-4.5-9.72-5.01-1.05-.12-2.19.24-1.5-1.5.47-1.17,13.8-19.84,14.77-20.66,4.41-3.7,9.1-2.44,12.62,1.69,2.18,2.55,12.21,20.66,12.2,23.17,0,1.43-1.46,2.2-1.65,3.09-1.46,6.8,11.15,3.76,9.25-3.48-.69-2.62-13.03-24.72-15.11-27.41-2.84-3.66-9.16-6.53-13.75-5.69-10.2,1.87-14.93,17.11-22.42,22.73Z"/>
            <path class="cls-3" d="M1571.4,1053.01c-16.36-3.34-27.87,17.08-16.14,28.98,19.62,19.9,45.8-9.39,22.94-25.63-1.39-.98-5.24-3.04-6.8-3.36ZM1567.27,1058.03c8.86.54,17.87,10.34,12.48,18.85-7.78,12.31-26.94,2.01-22.98-9.53,1.27-3.7,6.24-9.58,10.5-9.32Z"/>
            <path class="cls-3" d="M1285.56,641.54c-21.25-3.89-28.45,24.62-9.16,32.16,24,9.37,31.76-28.02,9.16-32.16ZM1281.53,646.65c16.49.27,15.13,25.49-1.39,22.39-13.86-2.59-10.38-22.59,1.39-22.39Z"/>
            <path class="cls-3" d="M938.46,1186.84c-3.58-.59-8.07-.82-10.41,2.4-1.7,5.79,20.4,8.68,20.01,14.96-.05.76-2.47,3.63-3.22,4.54-2.13,2.57-11.77,10.37-11.78,12.56l1.67,2.48c2.76.73,8.75-4.35,11.08-6.03,3.25-2.34,12.72-9.05,12.91-12.54.33-5.93-14.32-17.39-20.25-18.36Z"/>
            <path class="cls-3" d="M1099.7,903.1c-14.22-1.36-22.17,21.15-6.02,28.14,20.95,9.06,29.35-25.9,6.02-28.14ZM1100.78,909.14c14.95,2.87,4.83,25.74-7.47,15.43-6.78-5.68-1.42-17.14,7.47-15.43Z"/>
            <path class="cls-3" d="M1945.03,879.98c-22.41-4.06-22,30.93-.86,27.87,14.6-2.11,16.35-25.06.86-27.87ZM1945.05,885.99c8.56,2.51,5.61,19.23-6.48,15.43-8.92-2.8-5.77-19.03,6.48-15.43Z"/>
            <path class="cls-3" d="M1377.67,939.12c-5.24,9.74,4.81,20.54,8.86,29.48,1.64,3.61,2.93,14.48,8.38,12.68,3.72-2.99.4-9.38-.93-12.98-1.41-3.81-14-29.13-16.32-29.17Z"/>
            <path class="cls-3" d="M1334.5,990.21c1.66,2.86,21.2,5.33,25.02,9.02,4.12.88,9.56.38,6.94-4.82-1.88-3.73-25.89-11.45-30.5-9.91-1.96.66-2.3,4.25-1.46,5.7Z"/>
            <path class="cls-3" d="M1141.86,1172.88l-3.38,2.35c.1,4.34-6.04,25.53,1.35,25.51,3.22-.01,5.36-12.87,5.59-15.66.28-3.49,1.32-12.19-3.56-12.19Z"/>
            <path class="cls-3" d="M1680.17,761.2c-1.52-.88-6.48.73-6.71,2.3,2.01,3.84,6.74,18.54,9.97,20.21,1.63.84,4.77-.16,5.66-1.57,1.99-3.13-7.26-17.18-8.92-20.95Z"/>
            <path class="cls-3" d="M1621.29,655.25c1.01.58,7.33-1.3,6.85-3.21-.51-2.03-8.86-17.71-10.08-18.34-1.62-.84-4.77.16-5.66,1.56-1.75,2.75,7.53,16.31,8.89,19.99Z"/>
            <path class="cls-3" d="M1724.78,669.57c-3.67,3.05-15.48,6.25-17.97,9.41-1.82,2.3,1.32,4.74,2.11,7.13l18.5-10.08c1.65-1.02-1.93-6.4-2.63-6.46Z"/>
            <path class="cls-3" d="M1727.3,751.96c-1.22-6.49-9.22-13.49-15.31-15.59-7.36-2.53-8.67-.97-4.09,5.03,4.17,5.46,12.13,11.16,19.39,10.56Z"/>
            <path class="cls-3" d="M1575.34,739.01c-.66,2.09.11,4.3,1.92,5.47,1.81.87,19.48-7.54,20.22-8.78.94-1.59-.21-4.58-1.87-5.41-3.53-1.77-15.81,7.8-20.27,8.72Z"/>
            <path class="cls-3" d="M1080.1,1217.77c1.23-5.51-14.21-20.32-17.93-15.14-3.68,5.11,14.73,19.34,17.93,15.14Z"/>
            <path class="cls-3" d="M1582.49,663.57c-2.79,4.36,4.8,8.08,8,9.45,3.88,1.66,9.52,4.52,13.29.97-.68-5.03-18.78-14.35-21.29-10.41Z"/>
            <path class="cls-3" d="M1169.93,1211.74c2.39,2.41,21.68-10.71,15.37-16.67-4.75-3.4-17.75,11.09-15.37,16.67Z"/>
            <path class="cls-3" d="M1102.7,1201.52l5.01-.29c2.96-1.95-3.49-15.47-5.32-18-1.08-1.49-1.94-3.16-4.23-2.57-6.96,1.78,3.5,16.86,4.55,20.86Z"/>
            <path class="cls-3" d="M1665.44,627.29c-6.68-2.17-8.1,14.32-7.59,18.58.18,1.5.1,2.54,1.59,3.47,4.46.93,11.13-20.38,6-22.05Z"/>
            <path class="cls-3" d="M1347.47,969.2c3.42-5.26-12.2-15.69-15.53-14.88-9.76,2.4,10.83,17.65,15.53,14.88Z"/>
            <path class="cls-3" d="M1793.88,636.5c-.78.43-10.38,13.34-10.72,14.16-1.89,4.54,2.22,6.42,5.98,3.79,1.74-1.22,12.31-16.45,9.51-18.07-1.4-.17-3.59-.53-4.77.12Z"/>
            <path class="cls-3" d="M1815.21,682.46c.87.61,4.24-.22,5.31-.86,1.98-1.18,9.64-16.65,5.29-19.16-2.45-.49-11.47,14.36-11.61,16.58-.04.59.78,3.28,1.01,3.45Z"/>
            <path class="cls-3" d="M1367.21,968.42c-10.59.26,3.14,13.05,6.51,14.81s8.04,1.62,5.98-2.86c-1.12-2.43-9.95-11.45-12.48-11.95Z"/>
            <path class="cls-3" d="M1695.62,644.36c-3.69-3.15-15.62,12.3-11.23,16.63,4.59,3.26,14.93-11.93,11.23-16.63Z"/>
            <path class="cls-3" d="M1591.44,704.59c4.53-6.64-18.32-9.9-19.25-4.32.54,5.65,17.64,6.68,19.25,4.32Z"/>
            <path class="cls-3" d="M1639.54,766.06c-3.38,6.82-6.51,16.05-2.57,23.11,2.8-2.49,5.01-6.96,5.53-10.63.24-1.71.95-15.21-2.96-12.48Z"/>
            <path class="cls-3" d="M1809.49,652.39c-2.51,2.38-14.55,15.5-7,16.93,5.1.51,12.13-16.79,7-16.93Z"/>
            <path class="cls-3" d="M1114.81,632.23c5.98,2.28,12.08-.96,18.37,0l-6.1-4.52,7.12-8.03c-1.21-5.51-16.7,7.2-18.34,9.07-1.08,1.23-1.33,1.8-1.05,3.48Z"/>
            <path class="cls-3" d="M1786.53,844.53c-.6,7.94,12.44,21.94,19.37,14.59-7.37-4.38-13.34-8.46-19.37-14.59Z"/>
          </g>
          <g>
            <path class="cls-3" d="M572.73,605.08l4.08,11.05c-17.62,4.97-32.17,9.05-50.57,5.07-1.42-.31-2.96.87-2.5-1.52l18.37-14.6h-9.19c-4.5,3.18-23.05,12.44-18.91,19.14,17.14,9.16,36.33,5.01,54.51,2.11,2.79,1.77-2.83,24.83-3.97,29.05-1.88,1.44-8.08-14.56-10.18-15.66-1.97-1.03-3.96,1.27-4.04,3.04-.23,4.55,10.23,22.8,15.79,22.66,5.09-1.6,6.17-9.23,7.34-13.85,1.17-4.63,3.71-27.04,4.58-28.17.83-1.08,5.91-.78,6.81-3.94.96-3.37-4.65-10.4-4.97-14.38h-7.15Z"/>
            <path class="cls-3" d="M247.08,605.08c-2.14,8.38-4.98,31.38-10.16,37.51-4.16,4.93-20.32,4.72-25.53,1.15l12.2-38.67h-6.13l-13.51,41.51c-3.44,6.25-7.91,3.27-13.28,1.49-5.25-1.74-19.04-7.52-20.73-12.77-2.23-6.9,6.53-22.68,7.71-30.23h-6.13c-3.27,12.85-16.06,30.18-1.36,40.08,8.69,5.85,34.12,18.68,39.71,4.13,9.87,5.7,27.99,5.26,33.63-5.96,4.98-9.9,7.2-27.22,8.67-38.24h-5.1Z"/>
            <path class="cls-3" d="M838.15,605.08c6.46,9.31,14.56,19.01,25.52,23.14v-7.04c-6.98-3.79-13.15-9.37-17.35-16.1h-8.17Z"/>
            <path class="cls-3" d="M234.83,605.08c-.33,2.97-7.19,24.57-3.46,25.22,1.32-.09,2.79-.4,3.88-1.16,3.13-2.19,7.51-19.81,4.68-24.06h-5.1Z"/>
            <path class="cls-3" d="M863.67,859.62v-8.05c-3.39-.06-23.02,11.24-14.65,13.97,5.56.82,9.93-3.78,14.65-5.92Z"/>
            <path class="cls-3" d="M863.67,893.82v-7.04c-3.82.08-7.79-1.08-10.19,2.52,2.49,3.26,6.03,4.73,10.19,4.53Z"/>
            <path class="cls-3" d="M118.45,1185.55c-2.1.19-5.82,2.26-6.66,4.09-1.37,2.99,2.07,4.31,1.14,8.01-1.03,4.1-16.18,28.2-19.57,33.12-13.08,19.04-32.48,19.87-47.21,40-22.9,31.3-35.99,77.02-54.34,111.44-7.72,22.71,21.6,37.14,39.34,42.83,9.2,2.95,30.63,9.2,35.23-2.02-19.26-.54-41.83-5.95-57.5-17.28-12.36-8.94-15.15-15.17-7.03-28.73.36-.6.03-1.97,1.74-1.27,1.25.51,8.85,7.64,11.84,9.47,6.55,4.01,19.2,11.67,25.3,3.97,8.74-18.38,18.51-36.47,26.86-55.03,1.68-3.74,8.82-18.74,8.95-21.39.44-9.41-13.34-11.55-19.82-16.54-1.44-1.11-9.79-9.09-10.29-10.06-1.09-2.15,7.72-14.16,9.78-16.54,11.47-13.23,28.04-15.59,39.17-28.8,4.51-5.36,24.76-38.39,25.17-43.66.27-3.43-.92-6.77-.06-10.55,4.02-2.17,23.84,9.1,27.48,12.67l-2.47,4.4c-9.36-9.35-19.51.93-6.66,6.55-6.89,13.45-15.84,28.73-19.09,43.55-2.69,12.26,1.76,16.94,2.76,27.91,2.32,25.35-5.84,32.88-13.43,54.14-.71,1.99-55.49,93.64-49.68,92.74,13.99.29,53.07-83.85,54.77-86.72,5.73-9.66,14.73-32.08,15.56-43.02,1.11-14.71-4.87-30.52-2.86-43.06.93-5.8,14.51-38.04,18.06-42.3,1.8-2.16,6.23-.74,6.92-5.38.15-1.02-1.02-2.66-.64-3.21,1.02-1.49,6.52-1.55,3.46-8.18-1.77-3.83-18.14-13.26-22.68-14.87-5.32-1.89-16.65-5.54-13.55,3.75ZM40.89,1292.23c1.57-.37,1.63.24,2.47,1.07,6.38,6.31,7.47,8.64,16.02,13.39,2.43,1.35,10.22,2.87,9.91,5.97-10.2,20.08-18.42,41.33-28.56,61.42-1.31,2.59-5.16,11.84-8.35,11.55-9.5-4.73-20.56-9.15-26.2-18.42l34.7-74.98Z"/>
            <path class="cls-3" d="M798.34,883.76c-2.7,13.58,14.66,20.64,20.62,31.49,5.83,10.62,8.11,30.08,3.86,41.43-1.14,3.05-5.04,4.92-5.07,7.04-.02,1.47,1.82,3.57,2.06,6.03.55,5.63.74,29.37-2.52,32.79-1.53,1.61-6.91,2.7-7.53,5.63-.79,3.75,5.27,4.49,6.44,6.39,1.57,2.57-.76,24.47-1.98,28.22-1.52,4.65-7.4,3.97-8.58,8.68-.25,2.87,5.84,4.06,6.78,8.09.54,2.32-.55,12.78-.94,15.75-1.33,10.08-4.16,24.7-17.67,22.7-4.52-.67-7.66-5.08-12.18-5.82-6.42,5.82-13.52,10.96-22.04,5.32-3.37-2.23-4.91-8.05-9.51-7.32-5.6.88-13.98,9.24-18.14-2.64-2.34-6.66-1.92-31.12,2.07-36.32,1.18-1.54,3.94-1.23,3.83-5.16-.06-2.36-3.35-4.17-3.86-7.82-.69-4.92.92-25.09,3.22-29.11,1.92-3.35,7.36-2.89,6.98-7.18-.2-2.29-3.73-4.34-4.5-6.56-1.36-3.94.79-31.12,3.04-34.14,1.62-2.18,5.24-2.56,5.58-5.52.08-3.64-5.17-5.84-5.9-8.28-1.96-6.49.99-21.32,4.45-27.4,5.93-10.41,26.84-20.41,26.06-32.78-.16-2.53-2.06-4.99-4.67-5.52-2.56,4.18-2.51,8.35-5.64,12.57-4.96,6.7-14.39,11.67-19.81,18.7-6.04,7.83-10.19,23.78-8.52,33.38.47,2.67,3.87,7.72,3.63,9.11-.24,1.34-3.02,3.93-3.64,6.44-1.35,5.43-2.77,25.35-2.31,31.01.24,2.89,2.12,6.53,2.04,8.05-.08,1.57-3.3,4.41-4.26,6.78-2.56,6.34-3.49,24.39-2.87,31.44.22,2.48,2.01,4.38,2.02,6.01.01,2.05-2.6,4.4-3.33,6.72-2.28,7.33-3.39,22.59-2.46,30.22,1.83,14.93,11.91,23.41,26.63,15.99,7.06,7.53,14.7,11.39,25.13,7.41,2.39-.91,6.17-4.22,6.8-4.35,1.27-.24,6.64,3.17,9.28,3.62,22.39,3.81,27.79-18.01,28.84-35.49.35-5.89-3.05-16.09-2.88-16.95.12-.6,3.29-4.13,4.23-6.89,2.22-6.54,3.65-22.65,2.67-29.39-.35-2.42-2.74-5.81-2.73-6.15,0-.31,3-3.48,3.73-5.12,3.71-8.32,1.77-19.07,2.11-28.1.59-15.63,7.03-28.36,5.04-45.13-2.78-23.42-24.65-30.93-27.2-44.64-1.15-6.2,1.05-3.37,3.8-5.79,3.88-3.42,1.01-7.19,1.01-11,.01-10.89,3.98-17.79-10.11-20.22-7.08-1.22-20.09-2.21-26.86-.2-10.12,3-10.85,26.25-3.75,30.37.79.46,10.08,3.59,10.65,3.59h18.89ZM802.42,875.72h-22.97c-.29,0-5.16-1.32-5.59-1.54-3.14-1.57-2.94-14.88-.64-16.67,4.02-3.12,23.26.73,29.19.1v18.11Z"/>
            <path class="cls-3" d="M697.49,677.82c-54.03-5.76-94.2,46.7-69.81,95.96,25.55,51.61,103.08,48.3,124.19-5.73,15.57-39.84-11-85.61-54.39-90.23ZM676.86,684.57c25.91-4.97,55.67,8.45,66.37,32.67-4.25,1.41-9.22,2.42-11.66,6.64-2.79,4.8-.54,6.84-.52,11.47.01,2.74-1.09,5.69-.89,7.84.43,4.49,9.82,10.79,4.47,14.92-2.61,2.01-12.5-.06-15.41,6.91-2.54-2.71-6.27-5.27-10.19-5.08-2.47.12-4.1,1.79-6.19,2.04-5.89.71-11.62-1.47-16.24,4.12-6.12,7.41-.17,14.79-.78,21.36-.43,4.62-6.23,9.6-4.31,14.73l-1.13,2.08c-17.89-3.01-32.71-12.28-43.33-26.66-.35-2.13.35-1.19,1.4-1.59,5.02-1.94,7.98-1.89,11.86-6.44,4.58-5.38,12.13-23.08,16.35-26.14,7.76-5.61,17.44,5.94,28.57.99,7.11-3.16,4.18-6.33,5.88-10.28.95-2.21,3.58-3.56,4.84-6.32,4.37-9.51-.04-14.05-8.67-17.61,6.76-5.04,7.58-13.16-2-15.15-4.36-.9-8.89.38-12.68-2.59-2.32-1.82-3.39-5.74-5.75-7.9ZM662.22,711.38c7.86-7.82.61-22.88,6.13-24.67,7.33-2.38,6.23,8.27,10.57,11.4,3.98,2.87,5.82.45,9.18.99,1.11.18,8.14,3.29,8.13,4.07-2.26,2.36-5.61,5.49-5.13,8.99,1.61,6.22,9.72,2.33,10.33,9.11.56,6.2-3.2,5.59-5.06,9.19-1.66,3.22-.23,8.16-3.9,9.23-8.34,2.42-12.61-3.5-19.23-3.86-17.43-.95-23.42,32.44-32.65,34.22-1.59.31-6.47.36-7.68-.44-3.28-2.17-6.22-22.76-6.15-27.24.11-6.84,3.14-21.72,6.97-27.37,3.66-5.4,9.74-.95,14.08-.32,4.81.7,10.83.25,14.4-3.3ZM639.09,707.7c-1.5-1.23,9.39-11.12,10.71-12.07,1.56-1.13,9.59-6.18,10.72-5.02-.78,6.18,3.43,12.38-2.52,17.12-6.17,4.91-12.31-.3-18.9-.03ZM699.32,803.27c4.92-3.33,3-8.75,4.58-12.07,1.15-2.41,8.33-3.96,10.75-6.51,4.11-4.32,3.12-12.65,9.13-18.17,5.32-4.88,11.77.08,15.78-6.58,5.35-8.87-2.49-11.22-3.46-16.58-.58-3.22.87-5.61.77-7.99-.1-2.34-1.92-6.31-1.6-7.94.47-2.47,8.52-4.29,10.99-5.64,13.46,34.53-9.21,76.54-46.95,81.48ZM686.04,804.29c-1.64-6.01,4.26-10.62,5.04-15.66,1.16-7.42-6.42-18.95,3.29-21.91,1.92-.59,10.95-2.34,12.86-2.45,2.48-.15,4.95,1.08,7.16,2.03,1.51,1.37-2.18,13.23-3.39,14.8-1.9,2.46-8.19,3.09-10.7,6.56-4.48,6.21-.7,18.76-14.27,16.63Z"/>
            <path class="cls-3" d="M663.59,1316.38c-8.27-1.02-17.14-.19-23.51-6.51-3.55-3.52-4.53-12.94-6.93-18.32-12.13-27.2-45.74-41.56-73.97-29.28-1.65.72-3.72,1.04-3.8,3.26-.07,3.22,6.68,8.95,8.6,11.69,14.58,20.85,30.76,52.54,61.89,46.74,5.13-.96,11.98-7.12,13.72-7.2,2.25-.1,9.11,3.76,12.51,4.4,3.59.68,7.4-.39,10.9,1.13,2.08,1.47-2.44,20.13,6.7,19.22,1.96-10.66-3.42-20.71.96-31.76,1.73-4.37,9.29-6.76,13.36-9.97,30.43-24.05,8.22-74.07-10.39-99.44-1.71-2.33-9.19-12.78-11.39-12.6-2.81.23-10.03,11.69-11.72,14.64-18.64,32.5-27.05,70.47,3.87,98.41,5.84,5.27,12.15,5.08,9.2,15.59ZM661.57,1197.67l2.11.64c16.26,22.27,31.4,48.71,28.49,77.32-.82,8.07-5.68,14.51-11.7,19.65-1.77,1.51-7.24,5.68-9.2,6.03-1.81.33-1.54-.12-1.58-1.54,1.13-9.17.54-16.1,4.59-24.68,1.32-2.79,8.81-12.86,8.69-14.56-.07-1.04-1.73-1.68-3.05-1.02-2.55,1.27-6.46,11.06-9.17,9.57-1.07-10.3,1.2-31.88-4.64-40.18-.39-.55-2.02-2.41-2.49-2.06.08,1.68-1.59,3.17-1.75,4.65-.44,4.07,3.37,17.29,3.77,23.02.22,3.16-.11,6.38,0,9.54-2.01.52-1.97-.82-2.87-1.69-2.96-2.88-5.47-8.06-10.4-8.36,4.49,8.89,11.93,17.05,13.83,27.1,1.29,6.85-1.38,13.22-.56,20.17-1.77.45-2.04-.72-3.06-1.5-19.4-14.74-25.06-32.21-21.13-56.05,2.87-17.39,11.63-31.07,20.14-46.06ZM564.57,1267.09c31.51-10.95,60.95,9.84,68.39,40.23-2,2-26.42-18.26-31.64-17.09-2.22,2.23,7.44,9.27,9.27,10.47,6.35,4.15,13.59,6.15,20,10.47.97.65,2.76,1.06,2.36,2.69-.32,1.31-7.25,4.02-8.92,4.3-17.56,2.93-30.56-9.51-40.49-22l-18.99-29.06Z"/>
            <path class="cls-3" d="M456.58,996.24c-.39-.71-.7-3.39.27-3.81,3.92,2.28,18.79,1.2,16.71,8.33-8.41,11.91-38.76,15.56-51.19,10.57-14.55-5.84,4.12-10.13,4.25-14.53.19-6.58-13.4,1.09-15.43,5.93-1.07,2.55-.37,4.79-1.01,7.05-.52,1.81-2.73,3.53-3.56,5.54-4,9.67-1.29,22.36-.14,32.81,2.39,21.76,7.07,43.29,9.54,65.05,1.27,4.24,6.15,8.3,10.05,10.21,18.34,8.98,73.29,3.64,74.23-22.88-4.19-26.32-5.06-54.14-9.35-80.3-2.17-13.24-3.35-9.5-9.07-18.22-1.42-2.16-1.43-4.5-2.61-6.48-3.05-5.11-13.06-8.64-18.76-9.68-2.28-.42-9.72-.27-10.12-.61-1.91-1.65-1.28-8.08-9.05-9.67-21.53-4.42-15.36,24.7-2.36,28.47,1.97.57,8.12,2.19,9.82,2.47,3.92.65,12.87-2.36,11.54-7.34-.54-2.03-3.41-2.31-3.74-2.91ZM439.26,981.51c6.65,1.25,5.18,10.92-1.74,9.94-6.36-.91-5.22-11.25,1.74-9.94ZM446.65,992.77c2.14,0,4.45,3,4.52,5.09l-5.55,3.33c-5.29-1.96-3.65-8.41,1.03-8.42ZM478.16,1007.59c4.66,2.87,5.76,7.59,6.67,12.61,1.54,8.45,1.12,18.44,2.15,27.05,1.77,14.78,5.04,30.66,6.11,45.29.64,8.73,1.41,11.42-5.58,17.62-10.75,9.53-33.14,11.25-47.02,10.08-8.34-.7-17.86-3.88-19.63-12.85-4.19-21.21-7.93-52.55-9.42-74.22-.33-4.85-1.22-9.74.82-14.27,3.45-7.64,4.65-3.14,10.16-1.59,18.94,5.32,40.17,2.52,55.73-9.71Z"/>
            <path class="cls-3" d="M479.07,800.43l-2.85.79c-.82,1.42-.55,2.84-.25,4.33,1.63,7.99,12.03,32.36,15.94,40.67,7.14,15.19,17.47,30.4,36.98,25.97.78.44,8.7,14.32,8.96,15.36.57,2.31-1.16,4.84-.83,7.69.47,4.09,14.33,16.7,17.87,20.7,14.66,16.58,32.84,41.72,48.44,55.89,3.76,3.42,14.84,10.63,17.18,2.76,1.39-4.66-2.61-12.65-4.71-17.07-8.28-17.49-21.34-35.79-30.98-52.97-3.67-6.53-12.64-28.75-18.46-31.11-2.97-1.21-5.63-.12-8.48-1.7-.94-.52-14.82-14.1-15.2-15.1-.3-.79.53-8.86,0-12.18-4.14-25.82-42.68-36.14-63.6-44.05ZM485.97,812.34c19.09,3.49,54.67,20.03,49.78,43.53-2.11,10.17-14.52,11.52-22.57,6.61-11.79-7.21-22.88-37.06-27.21-50.13ZM540.44,863.71l13.9,13.51-9.69,7.52-9.7-15.59c0-1.44,4.03-5.7,5.49-5.44ZM614.58,972.29c-.95,1.11-8.71-6.03-9.7-7.03-14.68-14.67-29.01-34.38-42.85-50.33-6.09-7.01-12.75-13.62-18.88-20.61l18.38-14.11c2.18-1.32,3.9.31,4.92,2.21,12.35,25.03,28.6,48.07,41.53,72.75,1.43,2.74,8.41,15,6.61,17.12Z"/>
            <path class="cls-3" d="M370.59,1323.41c2.62-5.93,0-11.81-.04-17.55-.06-10.46,1.58-20.74,1.09-31.21,35.56-42.11,16.99-85.53-23.79-114.43-4.26-3.02-15.05-10.43-19.4-12.08-2.65-1-5.67-1.36-6.65,1.94-.93,3.11-.74,11.06-1.55,15.58-5.87,32.72-20.78,64.97,8.48,91.88,11.65,10.72,19.57,10.08,31.36,16.38,14.38,7.69-1.95,41.59,6.85,48.58,1.17.93,2.19,1.13,3.65.92ZM364.48,1269.09c-15.23-3.81-30.37-12.13-39.02-25.42-15.41-23.67-1.46-52.87,2.15-77.83.47-3.26-1.01-7.17,1.65-9.41,23.9,13.58,52.97,38.79,54.66,67.85.9,15.4-4.19,31.72-13.82,43.8l-11.78-44.82,4.01-26.99c-.93-1.33-1.11-2.17-2.44-.62-2.14,2.5-3,9.42-4.5,12.67-.54,1.18.49,1.82-2.13,1.41-4.18-10.55-6.13-22.74-14.29-31.19-1.45,4.42,10.24,28.89,9.17,30.18-3.68-1.6-6.98-4.76-10.91-5.84-1.25-.34-3.14-.61-2.34,1.3.95,2.29,9.75,7.74,12.14,10.18,7.23,7.4,9.39,17.71,11.33,27.56l-19.39-12.57-6.62-1.52-.51,2c8.61,5.69,25.9,15.17,29.31,24.95,1.59,4.56,1.76,9.71,3.34,14.3Z"/>
            <path class="cls-3" d="M68.57,771.21c-2.95,4.63,8.78,15.57,12.11,18.5,2.58,2.27,9.39,5.92,10.93,7.82,5.45,6.73-3.08,38.15-3.76,47.51-.27,3.65-.92,8.74,4.11,7.11,3.74-1.22,15.6-16.26,20.36-20.22,2.42-2.01,5.75-5.12,8.64-5.57,2.7.26,21.49,19.91,25.6,23.16,3.31,2.62,6.94,6.05,11.58,4.93,4.44-14.53-3.81-28.78-4.76-42.94,9.42-6.41,20.84-10.83,30.33-16.88,1.54-.98,6.47-3.83,6.12-5.81-1.07-6.22-29.45-9.15-34.69-12.15-3.8-8.28-6.33-17.04-9.96-25.4-1.64-3.78-9.89-22.48-11.67-24.2-.95-.92-2.78-1.32-4.12-1.12-5.19,1.27-17.24,34.46-21.6,40.15-4.66,3.35-38.07,3.29-39.23,5.1ZM77.62,776.11h14.8c2.55,0,13.95-1.93,16.41-2.94,8.95-3.66,15.37-27.93,20.33-36.31,1.04-1.24,1.05-1.17,2.04.02,1.78,2.13,5.83,11.06,7.12,14.11,3.32,7.85,6.19,22.89,10.76,28.63,5.7,7.17,19.36,6.61,27.56,9.58,1.54,1.96-27.96,14.29-30.16,21.06-2.61,8,8.41,24.6,6.17,34.27-7.62-3.27-24.13-23.93-30.65-25.15-7.61-1.44-16.31,10.23-21.91,14.59-1.03.8-1.31,1.94-3.07,1.49,2.33-10.52,5.14-25.06,1.75-35.42-3.06-9.36-14.12-13.8-19.62-20.9-.79-1.01-1.97-1.27-1.52-3.03Z"/>
            <path class="cls-3" d="M240.98,967.23c14.18,4.49,10.6-24.67,23.98-25.18,9.36-.36,13.76,2.32,24.75-.68,34.4-9.39,32.31-45.22,33.94-73.19.32-5.44,2.02-12.92,2.08-18.17.01-1.12.02-2.33-1.01-3.03-2.4-1.64-23.93,3.48-28.06,4.66-35.75,10.21-64.92,55.3-43.66,89.81l-12.02,25.77ZM281.28,937.09c-5.56.65-12.17-.47-17.86,0,.49-2.6,2.74-5.18,4.27-7.36,1.84-2.63,8.68-12.51,10.5-13.8,3.81-2.69,19.45-5.14,20.93-8.55.19-.44.41-2.49-.49-2.49-3.47-.43-7.17,1.46-10.45,1.79-1.17.12-3.11.87-2.3-1.26,2.9-7.58,17.07-15.16,14.27-25.67-3.15-3.27-11.22,13.69-12.42,15.42-2,2.88-5.15,6.61-7.99,8.72v-16.6c0-.19-1.65-1.8-2.03-1.51-1.63,5.88-3.94,11.67-5.01,17.71-.67,3.79.49,7-.89,11.2-2.2,6.68-12.04,14.25-14.54,21.39-4.4-5.19-5.42-14.88-5.07-21.62.88-16.94,8.23-29.02,20.39-40.27,14.33-13.26,25.95-18.82,45.95-20.61-.51,13.51-1.18,27.23-3.2,40.6-3.07,20.26-10.12,40.11-34.05,42.9Z"/>
            <path class="cls-3" d="M381.08,661.66c-43.25-6.63-73.86,41.87-46.63,76.14,23.87,30.03,74.6,18.52,82.85-18.78,5.23-23.62-11.06-53.5-36.23-57.35ZM399.85,679.88c17.91,18.55,13.14,52.39-10.89,63.51-36.71,16.99-72.64-19.73-52.57-54.83,12.82-22.43,44.95-27.86,63.46-8.68Z"/>
            <path class="cls-3" d="M616.63,1108.11c-5.49,1.06-22.85-6.14-26.08-1.03-1.71,3.3,2.34,5.18,4.96,6.26,5.42,2.25,13.74,2.24,19.64,1.86,3.41-.22,11.45-.5,12.17-3.95-.67-8.97,5.31-22.28-4.03-28.28-2.87.64-2.75,14.1-2.56,16.59l-2.03.5c-5.18-8.54-12.65-18.8-19.77-25.8-2.24-2.2-11.94-11.14-15-8.96l-.81,3.86,33.52,38.95Z"/>
            <path class="cls-3" d="M191.96,1090.01c2.4-.5,1.64.32,2.28,1.3,2.44,3.71,9.59,16.95,10.48,20.82,1.86,8.14.26,11.41-8.13,12.13-9.41.8-23.95-3.52-31.66-2.02-7.63,1.48-1.8,6.16,4.17,6.9,7.08.87,20.67,2.34,27.39,2.16,5.03-.14,11.02-2.26,13.85-6.57,7.14-10.87-7-27.21-11.24-37.22,2.86-.13,13.83,3.4,12.15-2.86-.82-3.06-17.76-8.39-20.61-7.56-3.65,1.06-9.94,23.36-4.31,23.78,3.49.26,6.05-7.91,5.64-10.86Z"/>
            <path class="cls-3" d="M140.91,1119.18c-6.91-2.15-31.01-.13-34.17-7.05-3.25-7.1,7.1-20.15,11.75-25.61,1.51-1.77,5.55-4.14,5.94-5.23.95-2.68-.27-8.26-4.23-7.27-2.02.51-17.52,23.31-18.94,26.7-10.23,24.34,19.93,22.43,35.6,23.98,1.69,1.32.56,1.06-.02,2.01-1.14,1.85-9.11,10.48-2.57,11.25,3.96.47,14.94-11.23,17.74-14.4.24-1.24-6.8-12.06-8.19-13.77-1.38-1.7-5.21-7.03-7.52-3.73-2.89,4.13,6.49,11.29,4.63,13.11Z"/>
            <path class="cls-3" d="M135.82,1053.79c-.27-2.57-2.59-9.08-5.64-8.84-5.25.4-.86,19.05-.28,22.71,6.74,2.64,14.47,1.15,21.22-.8.24-6.68-5.37-4.5-9.72-5.01-1.05-.12-2.19.24-1.5-1.5.47-1.17,13.8-19.84,14.77-20.66,4.41-3.7,9.1-2.44,12.62,1.69,2.18,2.55,12.21,20.66,12.2,23.17,0,1.43-1.46,2.2-1.65,3.09-1.46,6.8,11.15,3.76,9.25-3.48-.69-2.62-13.03-24.72-15.11-27.41-2.84-3.66-9.16-6.53-13.75-5.69-10.2,1.87-14.93,17.11-22.42,22.73Z"/>
            <path class="cls-3" d="M291.26,1053.01c-16.36-3.34-27.87,17.08-16.14,28.98,19.62,19.9,45.8-9.39,22.94-25.63-1.39-.98-5.24-3.04-6.8-3.36ZM287.13,1058.03c8.86.54,17.87,10.34,12.48,18.85-7.78,12.31-26.94,2.01-22.98-9.53,1.27-3.7,6.24-9.58,10.5-9.32Z"/>
            <path class="cls-3" d="M5.42,641.54c-21.25-3.89-28.45,24.62-9.16,32.16,24,9.37,31.76-28.02,9.16-32.16ZM1.39,646.65c16.49.27,15.13,25.49-1.39,22.39-13.86-2.59-10.38-22.59,1.39-22.39Z"/>
            <path class="cls-3" d="M664.89,879.98c-22.41-4.06-22,30.93-.86,27.87,14.6-2.11,16.35-25.06.86-27.87ZM664.91,885.99c8.56,2.51,5.61,19.23-6.48,15.43-8.92-2.8-5.77-19.03,6.48-15.43Z"/>
            <path class="cls-3" d="M754.68,1042.93c-3.21-.21-7.55,2.49-5.9,5.83,3.45,6.37,34.78,8.91,41.93,8.06,5.19-.62,11.79-5.09,3.83-6.85-5.3-1.17-13.26-.4-19.87-1.55-6.32-1.1-14.85-5.17-20-5.51Z"/>
            <path class="cls-3" d="M766.93,957.49c-2.52-.27-8.86-1.56-8.96,1.75,1.14,4.59,13.28,7.94,17.68,8.76,5.93,1.1,25.4,3.07,29.36-.69,7.83-7.41-16.42-5.86-19.3-6.21-6.2-.75-12.79-2.98-18.79-3.61Z"/>
            <path class="cls-3" d="M794.5,612.36c-16.52-4.18-10.01,24.82-2.75,25.94,8.54,1.31,24.51-7.39,17.36-17.18-3.13-4.29-6.15-1.97-8.73-3.47-1.39-.81-2.49-4.43-5.89-5.29ZM795.02,618.43c.96.97.98,3.54,2.29,4.34,1.59.98,5.79-1.66,7.69,1.41,3.22,5.18-9.15,9.22-11.77,7.6-2.08-1.28-6.63-13.34-1.37-14.44.84-.17,2.56.47,3.16,1.08Z"/>
            <path class="cls-3" d="M753.43,1002.49c3.16,8.05,18.29,10.28,26.16,10.93,7.2.59,18.16,1.73,22.82-4.4-1.04-1.24-1.86-2.17-3.58-2.49-5.17-.96-13.52-.34-19.25-1.15-8.56-1.21-17.69-5.41-26.15-2.89Z"/>
            <path class="cls-3" d="M97.53,939.12c-5.24,9.74,4.81,20.54,8.86,29.48,1.64,3.61,2.93,14.48,8.38,12.68,3.72-2.99.4-9.38-.93-12.98-1.41-3.81-14-29.13-16.32-29.17Z"/>
            <path class="cls-3" d="M54.36,990.21c1.66,2.86,21.2,5.33,25.02,9.02,4.12.88,9.56.38,6.94-4.82-1.88-3.73-25.89-11.45-30.5-9.91-1.96.66-2.3,4.25-1.46,5.7Z"/>
            <path class="cls-3" d="M849.66,825.55c-4.59-1.23-14.61,10.26-17.06,14-1.74,2.66-2.51,4.35.46,6.55,1.02.66,1.82.13,2.74-.29,3-1.39,16.98-15.12,16.48-17.74-.47-1.06-1.51-2.22-2.63-2.52Z"/>
            <path class="cls-3" d="M400.03,761.2c-1.52-.88-6.48.73-6.71,2.3,2.01,3.84,6.74,18.54,9.97,20.21,1.63.84,4.77-.16,5.66-1.57,1.99-3.13-7.26-17.18-8.92-20.95Z"/>
            <path class="cls-3" d="M341.15,655.25c1.01.58,7.33-1.3,6.85-3.21-.51-2.03-8.86-17.71-10.08-18.34-1.62-.84-4.77.16-5.66,1.56-1.75,2.75,7.53,16.31,8.89,19.99Z"/>
            <path class="cls-3" d="M444.64,669.57c-3.67,3.05-15.48,6.25-17.97,9.41-1.82,2.3,1.32,4.74,2.11,7.13l18.5-10.08c1.65-1.02-1.93-6.4-2.63-6.46Z"/>
            <path class="cls-3" d="M447.17,751.96c-1.22-6.49-9.22-13.49-15.31-15.59-7.36-2.53-8.67-.97-4.09,5.03,4.17,5.46,12.13,11.16,19.39,10.56Z"/>
            <path class="cls-3" d="M295.2,739.01c-.66,2.09.11,4.3,1.92,5.47,1.81.87,19.48-7.54,20.22-8.78.94-1.59-.21-4.58-1.87-5.41-3.53-1.77-15.81,7.8-20.27,8.72Z"/>
            <path class="cls-3" d="M302.35,663.57c-2.79,4.36,4.8,8.08,8,9.45,3.88,1.66,9.52,4.52,13.29.97-.68-5.03-18.78-14.35-21.29-10.41Z"/>
            <path class="cls-3" d="M385.3,627.29c-6.68-2.17-8.1,14.32-7.59,18.58.18,1.5.1,2.54,1.59,3.47,4.46.93,11.13-20.38,6-22.05Z"/>
            <path class="cls-3" d="M67.33,969.2c3.42-5.26-12.2-15.69-15.53-14.88-9.76,2.4,10.83,17.65,15.53,14.88Z"/>
            <path class="cls-3" d="M513.74,636.5c-.78.43-10.38,13.34-10.72,14.16-1.89,4.54,2.22,6.42,5.98,3.79,1.74-1.22,12.31-16.45,9.51-18.07-1.4-.17-3.59-.53-4.77.12Z"/>
            <path class="cls-3" d="M535.07,682.46c.87.61,4.24-.22,5.31-.86,1.98-1.18,9.64-16.65,5.29-19.16-2.45-.49-11.47,14.36-11.61,16.58-.04.59.78,3.28,1.01,3.45Z"/>
            <path class="cls-3" d="M87.07,968.42c-10.59.26,3.14,13.05,6.51,14.81s8.04,1.62,5.98-2.86c-1.12-2.43-9.95-11.45-12.48-11.95Z"/>
            <path class="cls-3" d="M415.48,644.36c-3.69-3.15-15.62,12.3-11.23,16.63,4.59,3.26,14.93-11.93,11.23-16.63Z"/>
            <path class="cls-3" d="M311.3,704.59c4.53-6.64-18.32-9.9-19.25-4.32.54,5.65,17.64,6.68,19.25,4.32Z"/>
            <path class="cls-3" d="M359.4,766.06c-3.38,6.82-6.51,16.05-2.57,23.11,2.8-2.49,5.01-6.96,5.53-10.63.24-1.71.95-15.21-2.96-12.48Z"/>
            <path class="cls-3" d="M529.35,652.39c-2.51,2.38-14.55,15.5-7,16.93,5.1.51,12.13-16.79,7-16.93Z"/>
            <path class="cls-3" d="M506.39,844.53c-.6,7.94,12.44,21.94,19.37,14.59-7.37-4.38-13.34-8.46-19.37-14.59Z"/>
          </g>
        </g>
      </g>
    </g>
  </g>
</svg>