<svg xmlns="http://www.w3.org/2000/svg">
  <symbol id="menu" viewBox="0 0 24 24">
    <path d="M4 7h16M4 12h16M4 17h16" fill="none" stroke="currentColor" stroke-width="2" stroke-linecap="round"/>
  </symbol>
  <symbol id="close" viewBox="0 0 24 24">
    <path d="m6 6 12 12M18 6 6 18" fill="none" stroke="currentColor" stroke-width="2" stroke-linecap="round"/>
  </symbol>
  <symbol id="arrow-left" viewBox="0 0 24 24">
    <path d="M19 12H5m6-6-6 6 6 6" fill="none" stroke="currentColor" stroke-width="2" stroke-linecap="round" stroke-linejoin="round"/>
  </symbol>
  <symbol id="arrow-right" viewBox="0 0 24 24">
    <path d="M5 12h14m-6-6 6 6-6 6" fill="none" stroke="currentColor" stroke-width="2" stroke-linecap="round" stroke-linejoin="round"/>
  </symbol>
  <symbol id="instagram" viewBox="0 0 24 24">
    <rect x="3" y="3" width="18" height="18" rx="5" fill="none" stroke="currentColor" stroke-width="2"/>
    <circle cx="12" cy="12" r="4" fill="none" stroke="currentColor" stroke-width="2"/>
    <circle cx="17.5" cy="6.5" r="1.1" fill="currentColor"/>
  </symbol>
  <symbol id="tiktok" viewBox="0 0 24 24">
    <path d="M14 4v10.2a4.2 4.2 0 1 1-3.2-4.1M14 4c.8 2.6 2.3 4 5 4" fill="none" stroke="currentColor" stroke-width="2" stroke-linecap="round" stroke-linejoin="round"/>
  </symbol>
  <symbol id="facebook" viewBox="0 0 24 24">
    <path d="M14 8h3V4.4c-.7-.2-1.8-.4-3.2-.4-3.1 0-5.2 1.9-5.2 5.4V12H5v4h3.6v8H13v-8h3.5l.5-4h-4V9.8C13 8.6 13.3 8 14 8Z" fill="currentColor"/>
  </symbol>
  <symbol id="whatsapp" viewBox="0 0 24 24">
    <path d="M20.5 11.6a8.4 8.4 0 0 1-12.4 7.3L4 20l1.1-4a8.4 8.4 0 1 1 15.4-4.4Z" fill="none" stroke="currentColor" stroke-width="1.8" stroke-linejoin="round"/>
    <path d="M8.3 7.6c.3-.4.7-.4 1-.1l1.2 1.6c.2.3.2.6 0 .9l-.7.9c.6 1.4 1.7 2.5 3.1 3l.9-.7c.3-.2.6-.2.9 0l1.6 1.1c.4.3.4.7.2 1.1-.5.8-1.4 1.3-2.4 1.2-4.1-.5-7.3-3.7-7.7-7.5-.1-.6.6-1.3 1.9-1.5Z" fill="currentColor"/>
  </symbol>
  <symbol id="recycle" viewBox="0 0 24 24">
    <path d="m10 4 2-2 2 2m-2-2v5M5.3 9 2.5 8.3 1.8 11m.7-2.7 4.3 2.5M7 19l-.8 2.7L9 22m-2.8-.3 3.8-3" fill="none" stroke="currentColor" stroke-width="1.8" stroke-linecap="round" stroke-linejoin="round"/>
    <path d="M8.2 6.8A6.5 6.5 0 0 1 18 9m.3 3.1a6.5 6.5 0 0 1-3.8 6.1M10.8 18.4A6.5 6.5 0 0 1 5.6 14" fill="none" stroke="currentColor" stroke-width="1.8" stroke-linecap="round"/>
  </symbol>
  <symbol id="city" viewBox="0 0 24 24">
    <path d="M3 21V9l6-3v15m0-9 6-3v12m0-7 6-3v10M6 12h1m-1 3h1m5 0h1m-1 3h1m5-3h1m-1 3h1" fill="none" stroke="currentColor" stroke-width="1.8" stroke-linecap="round" stroke-linejoin="round"/>
  </symbol>
  <symbol id="trash" viewBox="0 0 24 24">
    <path d="M5 7h14m-9-3h4l1 3M7 7l1 14h8l1-14M10 11v6m4-6v6" fill="none" stroke="currentColor" stroke-width="1.8" stroke-linecap="round" stroke-linejoin="round"/>
  </symbol>
  <symbol id="search" viewBox="0 0 24 24">
    <circle cx="10.5" cy="10.5" r="6.5" fill="none" stroke="currentColor" stroke-width="1.8"/>
    <path d="m15.5 15.5 5 5M8 9l5-2-2 5-3-3Z" fill="none" stroke="currentColor" stroke-width="1.8" stroke-linecap="round" stroke-linejoin="round"/>
  </symbol>
  <symbol id="separate" viewBox="0 0 24 24">
    <path d="M6 4h3v3l1 2v10H5V9l1-2V4Zm10 1h2v4l1 2v8h-5v-8l1-2V5h1ZM7 13h1m8 1h1" fill="none" stroke="currentColor" stroke-width="1.8" stroke-linecap="round" stroke-linejoin="round"/>
  </symbol>
  <symbol id="bulb" viewBox="0 0 24 24">
    <path d="M9 18h6m-5 3h4M8.4 15.3A7 7 0 1 1 15.6 15c-.8.6-1.1 1.3-1.1 2h-5c0-.7-.3-1.3-1.1-1.7ZM12 5v3m-4.5.1 2.1 2.1m6.9-2.1-2.1 2.1" fill="none" stroke="currentColor" stroke-width="1.8" stroke-linecap="round" stroke-linejoin="round"/>
  </symbol>
  <symbol id="palette" viewBox="0 0 24 24">
    <path d="M12 3a9 9 0 0 0 0 18h1.3c1.4 0 2.1-1.7 1.1-2.7-.8-.8-.2-2.3 1-2.3H18a3 3 0 0 0 3-3c0-5.5-4-10-9-10Z" fill="none" stroke="currentColor" stroke-width="1.8"/>
    <circle cx="7.5" cy="11" r="1" fill="currentColor"/><circle cx="10" cy="7" r="1" fill="currentColor"/><circle cx="15" cy="7.5" r="1" fill="currentColor"/>
  </symbol>
  <symbol id="megaphone" viewBox="0 0 24 24">
    <path d="M4 10v4h4l8 4V6l-8 4H4Zm4 4 1 6h4l-2-4M19 9l2-2m-2 8 2 2m-2-5h3" fill="none" stroke="currentColor" stroke-width="1.8" stroke-linecap="round" stroke-linejoin="round"/>
  </symbol>
  <symbol id="type" viewBox="0 0 24 24">
    <path d="M4 20V9l8-5 8 5v11H4Zm5 0v-6h6v6M7 10h2m6 0h2" fill="none" stroke="currentColor" stroke-width="1.8" stroke-linecap="round" stroke-linejoin="round"/>
  </symbol>
  <symbol id="materials" viewBox="0 0 24 24">
    <rect x="4" y="3" width="16" height="18" rx="2" fill="none" stroke="currentColor" stroke-width="1.8"/>
    <path d="M8 7h8M8 11h2m3 0h3M8 15h2m3 0h3" fill="none" stroke="currentColor" stroke-width="1.8" stroke-linecap="round"/>
  </symbol>
  <symbol id="user" viewBox="0 0 24 24">
    <circle cx="12" cy="8" r="4" fill="none" stroke="currentColor" stroke-width="1.8"/>
    <path d="M4.5 21a7.5 7.5 0 0 1 15 0" fill="none" stroke="currentColor" stroke-width="1.8" stroke-linecap="round"/>
  </symbol>
  <symbol id="document" viewBox="0 0 24 24">
    <path d="M6 3h8l4 4v14H6V3Zm8 0v5h4M9 12h6m-6 4h6" fill="none" stroke="currentColor" stroke-width="1.8" stroke-linecap="round" stroke-linejoin="round"/>
  </symbol>
</svg>
